<svg viewBox="0 0 226 226" xmlns="http://www.w3.org/2000/svg"><g fill="#fff" stroke="#ddd" stroke-width="2"><path d="M113 14l70 29 29 70-29 70-70 29-70-29-29-70 29-70zm0 0l29 70 70 29-70 29-29 70-29-70-70-29 70-29zM43 43l70 29 70-29-29 70 29 70-70-29-70 29 29-70zm70 29l29 70-70-29 70-29-29 70-29-70 70 29-70 29z" fill="none"/><circle cx="14" cy="113" r="13"/><circle cx="43" cy="43" r="13"/><circle cx="84" cy="84" r="13"/><circle cx="113" cy="14" r="13"/><circle cx="84" cy="142" r="13"/><circle cx="113" cy="72" r="13"/><circle cx="154" cy="113" r="13"/><circle cx="183" cy="43" r="13"/><circle cx="43" cy="183" r="13"/><circle cx="72" cy="113" r="13"/><circle cx="113" cy="154" r="13"/><circle cx="142" cy="84" r="13"/><circle cx="113" cy="212" r="13"/><circle cx="142" cy="142" r="13"/><circle cx="183" cy="183" r="13"/><circle cx="212" cy="113" r="13"/></g><path d="M9 106h11l-1 2H8m1 2h11l-1 2H8m1 2h11l-1 2H8m1 2h11l-1 2H8m30-80h11l-1 2H37m1 2h11l-1 2H37m1 2h11l-1 2H37m1 126h11l-1 2H37m1 2h11l-1 2H37m1 2h11l-1 2H37m30-76h11l-1 2H66m1 2h11l-1 2H66m13-39h11l-1 2H78m1 6h11l-1 2H78m1 2h11l-1 2H78m1 44h11l-1 2H78m1 2h11l-1 2H78m1 6h11l-1 2H78m30-134h11l-1 2h-11m1 2h11l-1 2h-11m1 48h11l-1 2h-11m1 6h11l-1 2h-11m1 68h11l-1 2h-11m1 6h11l-1 2h-11m1 48h11l-1 2h-11m1 2h11l-1 2h-11m30-126h11l-1 2h-11m1 52h11l-1 2h-11m13-35h11l-1 2h-11m1 10h11l-1 2h-11m30-72h11l-1 2h-11m1 126h11l-1 2h-11"/><path d="M43 35l2 2-2 2-2-2m2 150l2 2-2 2-2-2m31-84l2 2-2 2-2-2m2 10l2 2-2 2-2-2m14-39l2 2-2 2-2-2m2 60l2 2-2 2-2-2M113 6l2 2-4 4 2 2 2-2-4-4m2 56l2 2-2 2-2-2m2 6l2 2-2 2-2-2m2 76l2 2-2 2-2-2m2 6l2 2-2 2-2-2m2 52l2 2-4 4 2 2 2-2-4-4m31-138l2 2-4 4 2 2 2-2-4-4m2 10l2 2-2 2-2-2m2 44l2 2-2 2-2-2m2 6l2 2-4 4 2 2 2-2-4-4m14-35l2 2-4 4 2 2 2-2-4-4m31-76l2 2-4 4 4 4-2 2-2-2 4-4-4-4m2 142l2 2-4 4 4 4-2 2-2-2 4-4-4-4m31-76l2 2-4 4 4 4-4 4 2 2 2-2-4-4 4-4-4-4" fill="#d22"/></svg>