<svg xmlns="http://www.w3.org/2000/svg" viewBox="0 0 58 72" width="348" height="432"><path d="M29 2l1 1-2 2 1 1 1-1-2-2m-1 3l1 1-2 2 1 1 1-1-2-2m5-1l1 1-2 2 1 1 1-1-2-2m-9 5l1 1-1 1-1-1m-1 1l1 1-2 2 2 2-1 1-1-1 2-2-2-2m5-1l1 1-2 2 2 2-1 1-1-1 2-2-2-2m15-3l1 1-2 2 2 2-1 1-1-1 2-2-2-2m-1 5l1 1-1 1-1-1m5-1l1 1-1 1-1-1m-27 3l1 1-1 1-1-1m5-1l1 1-1 1-1-1m-1 1l1 1-1 1-1-1m-1 1l1 1-2 2 1 1 1-1-2-2m5-1l1 1-2 2 1 1 1-1-2-2m15-5l1 1-1 1-1-1m-1 1l1 1-1 1-1-1m5-1l1 1-1 1-1-1m-1 1l1 1-1 1-1-1m-1 1l1 1-1 1-1-1m5-1l1 1-1 1-1-1m15-7l1 1-2 2 1 1 1-1-2-2m-1 3l1 1-1 1-1-1m5-1l1 1-1 1-1-1m-1 1l1 1-1 1-1-1M3 32l1 1-2 2 2 2-2 2 1 1 1-1-2-2 2-2-2-2m5-1l1 1-2 2 2 2-2 2 1 1 1-1-2-2 2-2-2-2m13-1l1 1-1 1-1-1m5-1l1 1-1 1-1-1m-1 1l1 1-2 2 1 1 1-1-2-2m-1 3l1 1-1 1-1-1m5-1l1 1-1 1-1-1m15-7l1 1-1 1-1-1m-1 1l1 1-2 2 1 1 1-1-2-2m5-1l1 1-2 2 1 1 1-1-2-2m-1 3l1 1-1 1-1-1m17-7l1 1-2 2 2 2-2 2 1 1 1-1-2-2 2-2-2-2m-41 9l1 1-2 2 1 1 1-1-2-2m5-1l1 1-2 2 1 1 1-1-2-2m-1 3l1 1-1 1-1-1m-1 1l1 1-1 1-1-1m5-1l1 1-1 1-1-1m13-7l1 1-1 1-1-1m5-1l1 1-1 1-1-1m-1 1l1 1-1 1-1-1m-1 1l1 1-1 1-1-1m5-1l1 1-1 1-1-1m-1 1l1 1-1 1-1-1m17-7l1 1-1 1-1-1m-1 1l1 1-1 1-1-1m5-1l1 1-1 1-1-1m-1 1l1 1-2 2 1 1 1-1-2-2m-25 5l1 1-2 2 2 2-1 1-1-1 2-2-2-2m5-1l1 1-2 2 2 2-1 1-1-1 2-2-2-2m-1 5l1 1-1 1-1-1m15-7l1 1-1 1-1-1m5-1l1 1-1 1-1-1m-1 1l1 1-2 2 2 2-1 1-1-1 2-2-2-2m-9 7l1 1-2 2 1 1 1-1-2-2m5-1l1 1-2 2 1 1 1-1-2-2m-1 3l1 1-2 2 1 1 1-1-2-2"/></svg>