<svg xmlns="http://www.w3.org/2000/svg" viewBox="0 0 116 144"><path d="M53 13h11l-1 2H52m1 2h11l-1 2H52M37 29h11l-1 2H36m1 2h11l-1 2H36m1 2h11l-1 2H36m33-2h11l-1 2H68m-47 6h11l-1 2H20m1 6h11l-1 2H20m1 2h11l-1 2H20m33-10h11l-1 2H52m1 6h11l-1 2H52m33-6h11l-1 2H84M5 65h11l-1 2H4m1 2h11l-1 2H4m1 2h11l-1 2H4m1 2h11l-1 2H4m33-14h11l-1 2H36m1 10h11l-1 2H36m33-10h11l-1 2H68m1 2h11l-1 2H68M21 85h11l-1 2H20m1 2h11l-1 2H20m1 6h11l-1 2H20m33-14h11l-1 2H52m1 6h11l-1 2H52m33-6h11l-1 2H84m-47 14h11l-1 2H36m1 2h11l-1 2H36m1 2h11l-1 2H36m33-10h11l-1 2H68m-15 18h11l-1 2H52m1 2h11l-1 2H52"/><path d="M58 4l2 2-4 4 2 2 2-2-4-4M42 24l2 2-2 2-2-2m34-2l2 2-4 4 4 4-2 2-2-2 4-4-4-4M26 48l2 2-2 2-2-2m34-6l2 2-2 2-2-2m2 6l2 2-2 2-2-2m34-10l2 2-4 4 2 2 2-2-4-4m2 10l2 2-2 2-2-2M42 68l2 2-4 4 2 2 2-2-4-4m34-6l2 2-2 2-2-2m2 10l2 2-2 2-2-2m34-14l2 2-4 4 4 4-4 4 2 2 2-2-4-4 4-4-4-4M26 92l2 2-2 2-2-2m34-6l2 2-2 2-2-2m2 6l2 2-2 2-2-2m34-14l2 2-2 2-2-2m2 6l2 2-4 4 2 2 2-2-4-4m-46 22l2 2-2 2-2-2m34-10l2 2-4 4 4 4-2 2-2-2 4-4-4-4m-14 22l2 2-4 4 2 2 2-2-4-4" fill="#d22"/></svg>