<svg xmlns="http://www.w3.org/2000/svg" viewBox="0 0 58 72"><path d="M29 2l1 1-2 2 1 1 1-1-2-2M27 6l1 1-2 2 1 1 1-1-2-2M31 6l1 1-2 2 1 1 1-1-2-2M21 12l1 1-1 1-1-1M19 14l1 1-2 2 2 2-1 1-1-1 2-2-2-2M23 14l1 1-2 2 2 2-1 1-1-1 2-2-2-2M37 12l1 1-2 2 2 2-1 1-1-1 2-2-2-2M35 18l1 1-1 1-1-1M39 18l1 1-1 1-1-1M11 22l1 1-1 1-1-1M15 22l1 1-1 1-1-1M13 24l1 1-1 1-1-1M11 26l1 1-2 2 1 1 1-1-2-2M15 26l1 1-2 2 1 1 1-1-2-2M29 22l1 1-1 1-1-1M27 24l1 1-1 1-1-1M31 24l1 1-1 1-1-1M29 26l1 1-1 1-1-1M27 28l1 1-1 1-1-1M31 28l1 1-1 1-1-1M45 22l1 1-2 2 1 1 1-1-2-2M43 26l1 1-1 1-1-1M47 26l1 1-1 1-1-1M45 28l1 1-1 1-1-1M3 32l1 1-2 2 2 2-2 2 1 1 1-1-2-2 2-2-2-2M7 32l1 1-2 2 2 2-2 2 1 1 1-1-2-2 2-2-2-2M19 32l1 1-1 1-1-1M23 32l1 1-1 1-1-1M21 34l1 1-2 2 1 1 1-1-2-2M19 38l1 1-1 1-1-1M23 38l1 1-1 1-1-1M37 32l1 1-1 1-1-1M35 34l1 1-2 2 1 1 1-1-2-2M39 34l1 1-2 2 1 1 1-1-2-2M37 38l1 1-1 1-1-1M53 32l1 1-2 2 2 2-2 2 1 1 1-1-2-2 2-2-2-2M11 42l1 1-2 2 1 1 1-1-2-2M15 42l1 1-2 2 1 1 1-1-2-2M13 46l1 1-1 1-1-1M11 48l1 1-1 1-1-1M15 48l1 1-1 1-1-1M27 42l1 1-1 1-1-1M31 42l1 1-1 1-1-1M29 44l1 1-1 1-1-1M27 46l1 1-1 1-1-1M31 46l1 1-1 1-1-1M29 48l1 1-1 1-1-1M45 42l1 1-1 1-1-1M43 44l1 1-1 1-1-1M47 44l1 1-1 1-1-1M45 46l1 1-2 2 1 1 1-1-2-2M19 52l1 1-2 2 2 2-1 1-1-1 2-2-2-2M23 52l1 1-2 2 2 2-1 1-1-1 2-2-2-2M21 58l1 1-1 1-1-1M35 52l1 1-1 1-1-1M39 52l1 1-1 1-1-1M37 54l1 1-2 2 2 2-1 1-1-1 2-2-2-2M27 62l1 1-2 2 1 1 1-1-2-2M31 62l1 1-2 2 1 1 1-1-2-2M29 66l1 1-2 2 1 1 1-1-2-2"/></svg>
