<svg xmlns="http://www.w3.org/2000/svg" viewBox="-164.5-164.5 329 329"><g stroke="#000"><circle r="164"/><path d="M142 0a82 82 0 00-71-123 82 82 0 00-142 0A82 82 0 00-142 0a82 82 0 0071 123 82 82 0 00142 0A82 82 0 00142 0Z" fill="#0ed145"/><path d="M142 0a82 82 0 00-71-41 82 82 0 000-82A82 82 0 000-82a82 82 0 00-71-41 82 82 0 000 82 82 82 0 00-71 41 82 82 0 0071 41 82 82 0 000 82A82 82 0 000 82a82 82 0 0071 41 82 82 0 000-82 82 82 0 0071-41Z" fill="#0ae"/><circle r="82" fill="#fe0"/><path d="M71-41A82 82 0 000 82 82 82 0 00-71-41a82 82 0 00142 0ZM0-82A82 82 0 0071 41a82 82 0 00-142 0A82 82 0 000-82Z" fill="#e22"/></g></svg>