<svg viewBox="0 0 134 134" xmlns="http://www.w3.org/2000/svg"><path d="M9 60l4.9 2.1L16 67l-2.1 4.9L9 74l-4.9-2.1L2 67l2.1-4.9zm17-41l4.9 2.1L33 26l-2.1 4.9L26 33l-4.9-2.1L19 26l2.1-4.9zm24 24l4.9 2.1L57 50l-2.1 4.9L50 57l-4.9-2.1L43 50l2.1-4.9zM67 2l4.9 2.1L74 9l-2.1 4.9L67 16l-4.9-2.1L60 9l2.1-4.9zM50 77l4.9 2.1L57 84l-2.1 4.9L50 91l-4.9-2.1L43 84l2.1-4.9zm17-41l4.9 2.1L74 43l-2.1 4.9L67 50l-4.9-2.1L60 43l2.1-4.9zm24 24l4.9 2.1L98 67l-2.1 4.9L91 74l-4.9-2.1L84 67l2.1-4.9zm17-41l4.9 2.1L115 26l-2.1 4.9L108 33l-4.9-2.1L101 26l2.1-4.9zm-82 82l4.9 2.1L33 108l-2.1 4.9L26 115l-4.9-2.1L19 108l2.1-4.9zm17-41l4.9 2.1L50 67l-2.1 4.9L43 74l-4.9-2.1L36 67l2.1-4.9zm24 24l4.9 2.1L74 91l-2.1 4.9L67 98l-4.9-2.1L60 91l2.1-4.9zm17-41l4.9 2.1L91 50l-2.1 4.9L84 57l-4.9-2.1L77 50l2.1-4.9zm-17 75l4.9 2.1L74 125l-2.1 4.9L67 132l-4.9-2.1L60 125l2.1-4.9zm17-41l4.9 2.1L91 84l-2.1 4.9L84 91l-4.9-2.1L77 84l2.1-4.9zm24 24l4.9 2.1 2.1 4.9-2.1 4.9-4.9 2.1-4.9-2.1-2.1-4.9 2.1-4.9zm17-41l4.9 2.1L132 67l-2.1 4.9L125 74l-4.9-2.1L118 67l2.1-4.9z"/><g fill="none" stroke="#fff"><path d="M43 67L26 26" stroke="#000" stroke-width="2.4"/><path d="M43 67L26 26"/><path d="M9 67l17-41L67 9l41 17 17 41-17 41-41 17-41-17L9 67l41-17L67 9" stroke="#000" stroke-width="2.4"/><path d="M9 67l17-41L67 9l41 17 17 41-17 41-41 17-41-17L9 67l41-17L67 9"/><path d="M26 26l41 17 41-17" stroke="#000" stroke-width="2.4"/><path d="M26 26l41 17 41-17"/><path d="M67 9l17 41 41 17" stroke="#000" stroke-width="2.4"/><path d="M67 9l17 41 41 17"/><path d="M108 26L91 67l17 41" stroke="#000" stroke-width="2.4"/><path d="M108 26L91 67l17 41"/><path d="M125 67L84 84l-17 41" stroke="#000" stroke-width="2.4"/><path d="M125 67L84 84l-17 41"/><path d="M108 108L67 91l-41 17" stroke="#000" stroke-width="2.4"/><path d="M108 108L67 91l-41 17"/><path d="M67 125L50 84 9 67" stroke="#000" stroke-width="2.4"/><path d="M67 125L50 84 9 67"/><path d="M26 108l17-41" stroke="#000" stroke-width="2.4"/><path d="M26 108l17-41"/><path d="M58.5 63.5L67 43" stroke="#000" stroke-width="2.4" stroke-linecap="round"/><path d="M58.5 63.5L67 43"/><path d="M43 67l41-17" stroke="#000" stroke-width="2.4"/><path d="M43 67l41-17"/><path d="M50 50l41 17" stroke="#000" stroke-width="2.4"/><path d="M50 50l41 17"/><path d="M67 43l17 41" stroke="#000" stroke-width="2.4"/><path d="M67 43l17 41"/><path d="M84 50L67 91" stroke="#000" stroke-width="2.4"/><path d="M84 50L67 91"/><path d="M91 67L50 84" stroke="#000" stroke-width="2.4"/><path d="M91 67L50 84"/><path d="M84 84L43 67" stroke="#000" stroke-width="2.4"/><path d="M84 84L43 67"/><path d="M67 91L50 50" stroke="#000" stroke-width="2.4"/><path d="M67 91L50 50"/><path d="M50 84l8.5-20.5" stroke="#000" stroke-width="2.4"/><path d="M50 84l8.5-20.5" stroke-linecap="round"/></g><path d="M9 60.7l4.4 1.9 1.9 4.4-1.9 4.4L9 73.3l-4.4-1.9L2.7 67l1.9-4.4zm17-41l4.4 1.9 1.9 4.4-1.9 4.4-4.4 1.9-4.4-1.9-1.9-4.4 1.9-4.4zm24 24l4.4 1.9 1.9 4.4-1.9 4.4-4.4 1.9-4.4-1.9-1.9-4.4 1.9-4.4zm17-41l4.4 1.9L73.3 9l-1.9 4.4-4.4 1.9-4.4-1.9L60.7 9l1.9-4.4zm-17 75l4.4 1.9 1.9 4.4-1.9 4.4-4.4 1.9-4.4-1.9-1.9-4.4 1.9-4.4zm17-41l4.4 1.9 1.9 4.4-1.9 4.4-4.4 1.9-4.4-1.9-1.9-4.4 1.9-4.4zm24 24l4.4 1.9 1.9 4.4-1.9 4.4-4.4 1.9-4.4-1.9-1.9-4.4 1.9-4.4zm17-41l4.4 1.9 1.9 4.4-1.9 4.4-4.4 1.9-4.4-1.9-1.9-4.4 1.9-4.4zm-82 82l4.4 1.9 1.9 4.4-1.9 4.4-4.4 1.9-4.4-1.9-1.9-4.4 1.9-4.4zm17-41l4.4 1.9 1.9 4.4-1.9 4.4-4.4 1.9-4.4-1.9-1.9-4.4 1.9-4.4zm24 24l4.4 1.9 1.9 4.4-1.9 4.4-4.4 1.9-4.4-1.9-1.9-4.4 1.9-4.4zm17-41l4.4 1.9 1.9 4.4-1.9 4.4-4.4 1.9-4.4-1.9-1.9-4.4 1.9-4.4zm-17 75l4.4 1.9 1.9 4.4-1.9 4.4-4.4 1.9-4.4-1.9-1.9-4.4 1.9-4.4zm17-41l4.4 1.9 1.9 4.4-1.9 4.4-4.4 1.9-4.4-1.9-1.9-4.4 1.9-4.4zm24 24l4.4 1.9 1.9 4.4-1.9 4.4-4.4 1.9-4.4-1.9-1.9-4.4 1.9-4.4zm17-41l4.4 1.9 1.9 4.4-1.9 4.4-4.4 1.9-4.4-1.9-1.9-4.4 1.9-4.4z" fill="#fff"/><path d="M7 63l1 1-2 2 2 2-2 2 1 1 1-1-2-2 2-2-2-2zm4 0l1 1-2 2 2 2-2 2 1 1 1-1-2-2 2-2-2-2zm15-41.3l1 1-1 1-1-1zm-2 2l1 1-2 2 2 2-1 1-1-1 2-2-2-2zm4 0l1 1-2 2 2 2-1 1-1-1 2-2-2-2zM48 46l1 1-1 1-1-1zm4 0l1 1-1 1-1-1zm-2 2l1 1-1 1-1-1zm-2 2l1 1-2 2 1 1 1-1-2-2zm4 0l1 1-2 2 1 1 1-1-2-2zM67 4.7l1 1-2 2 1 1 1-1-2-2zm-2 4l1 1-2 2 1 1 1-1-2-2zm4 0l1 1-2 2 1 1 1-1-2-2zM48 80l1 1-2 2 1 1 1-1-2-2zm4 0l1 1-2 2 1 1 1-1-2-2zm-2 4l1 1-1 1-1-1zm-2 2l1 1-1 1-1-1zm4 0l1 1-1 1-1-1zm15-47.3l1 1-1 1-1-1zm-2 2l1 1-1 1-1-1zm4 0l1 1-1 1-1-1zm-2 2l1 1-1 1-1-1zm-2 2l1 1-1 1-1-1zm4 0l1 1-1 1-1-1zM89 63l1 1-1 1-1-1zm4 0l1 1-1 1-1-1zm-2 2l1 1-2 2 1 1 1-1-2-2zm-2 4l1 1-1 1-1-1zm4 0l1 1-1 1-1-1zm15-47.3l1 1-2 2 2 2-1 1-1-1 2-2-2-2zm-2 6l1 1-1 1-1-1zm4 0l1 1-1 1-1-1zm-86 76.6l1 1-2 2 2 2-1 1-1-1 2-2-2-2zm4 0l1 1-2 2 2 2-1 1-1-1 2-2-2-2zm-2 6l1 1-1 1-1-1zM43 63l1 1-1 1-1-1zm-2 2l1 1-2 2 1 1 1-1-2-2zm4 0l1 1-2 2 1 1 1-1-2-2zm-2 4l1 1-1 1-1-1zm22 18.3l1 1-1 1-1-1zm4 0l1 1-1 1-1-1zm-2 2l1 1-1 1-1-1zm-2 2l1 1-1 1-1-1zm4 0l1 1-1 1-1-1zm-2 2l1 1-1 1-1-1zM84 46l1 1-2 2 1 1 1-1-2-2zm-2 4l1 1-1 1-1-1zm4 0l1 1-1 1-1-1zm-2 2l1 1-1 1-1-1zm-19 69.3l1 1-2 2 1 1 1-1-2-2zm4 0l1 1-2 2 1 1 1-1-2-2zm-2 4l1 1-2 2 1 1 1-1-2-2zM84 80l1 1-1 1-1-1zm-2 2l1 1-1 1-1-1zm4 0l1 1-1 1-1-1zm-2 2l1 1-2 2 1 1 1-1-2-2zm22 20.3l1 1-1 1-1-1zm4 0l1 1-1 1-1-1zm-2 2l1 1-2 2 2 2-1 1-1-1 2-2-2-2zM125 63l1 1-2 2 2 2-2 2 1 1 1-1-2-2 2-2-2-2z" fill="#d22"/></svg>