<svg viewBox="0 0 134 134" xmlns="http://www.w3.org/2000/svg"><path d="M9 58l9 9-9 9-9-9zm17-41l9 9-9 9-9-9zm24 24l9 9-9 9-9-9zM67 0l9 9-9 9-9-9zM50 75l9 9-9 9-9-9zm17-41l9 9-9 9-9-9zm24 24l9 9-9 9-9-9zm17-41l9 9-9 9-9-9zM26 99l9 9-9 9-9-9zm17-41l9 9-9 9-9-9zm24 24l9 9-9 9-9-9zm17-41l9 9-9 9-9-9zm-17 75l9 9-9 9-9-9zm17-41l9 9-9 9-9-9zm24 24l9 9-9 9-9-9zm17-41l9 9-9 9-9-9z"/><g fill="none"><path d="M43 67L26 26" stroke="#000" stroke-width="2.414"/><path d="M43 67L26 26" stroke="#fff"/><path d="M9 67l17-41L67 9l41 17 17 41-17 41-41 17-41-17L9 67l41-17L67 9" stroke="#000" stroke-width="2.414"/><path d="M9 67l17-41L67 9l41 17 17 41-17 41-41 17-41-17L9 67l41-17L67 9" stroke="#fff"/><path d="M26 26l41 17 41-17" stroke="#000" stroke-width="2.414"/><path d="M26 26l41 17 41-17" stroke="#fff"/><path d="M67 9l17 41 41 17" stroke="#000" stroke-width="2.414"/><path d="M67 9l17 41 41 17" stroke="#fff"/><path d="M108 26L91 67l17 41" stroke="#000" stroke-width="2.414"/><path d="M108 26L91 67l17 41" stroke="#fff"/><path d="M125 67L84 84l-17 41" stroke="#000" stroke-width="2.414"/><path d="M125 67L84 84l-17 41" stroke="#fff"/><path d="M108 108L67 91l-41 17" stroke="#000" stroke-width="2.414"/><path d="M108 108L67 91l-41 17" stroke="#fff"/><path d="M67 125L50 84 9 67" stroke="#000" stroke-width="2.414"/><path d="M67 125L50 84 9 67" stroke="#fff"/><path d="M26 108l17-41" stroke="#000" stroke-width="2.414"/><path d="M26 108l17-41" stroke="#fff"/><path d="M58.5 63.5L67 43" stroke="#000" stroke-width="2.414" stroke-linecap="round"/><path d="M58.5 63.5L67 43" stroke="#fff"/><path d="M43 67l41-17" stroke="#000" stroke-width="2.414"/><path d="M43 67l41-17" stroke="#fff"/><path d="M50 50l41 17" stroke="#000" stroke-width="2.414"/><path d="M50 50l41 17" stroke="#fff"/><path d="M67 43l17 41" stroke="#000" stroke-width="2.414"/><path d="M67 43l17 41" stroke="#fff"/><path d="M84 50L67 91" stroke="#000" stroke-width="2.414"/><path d="M84 50L67 91" stroke="#fff"/><path d="M91 67L50 84" stroke="#000" stroke-width="2.414"/><path d="M91 67L50 84" stroke="#fff"/><path d="M84 84L43 67" stroke="#000" stroke-width="2.414"/><path d="M84 84L43 67" stroke="#fff"/><path d="M67 91L50 50" stroke="#000" stroke-width="2.414"/><path d="M67 91L50 50" stroke="#fff"/><path d="M50 84l8.5-20.5" stroke="#000" stroke-width="2.414"/><path d="M50 84l8.5-20.5" stroke="#fff" stroke-linecap="round"/></g><path d="M9 59l8 8-8 8-8-8zm17-41l8 8-8 8-8-8zm24 24l8 8-8 8-8-8zM67 1l8 8-8 8-8-8zM50 76l8 8-8 8-8-8zm17-41l8 8-8 8-8-8zm24 24l8 8-8 8-8-8zm17-41l8 8-8 8-8-8zm-82 82l8 8-8 8-8-8zm17-41l8 8-8 8-8-8zm24 24l8 8-8 8-8-8zm17-41l8 8-8 8-8-8zm-17 75l8 8-8 8-8-8zm17-41l8 8-8 8-8-8zm24 24l8 8-8 8-8-8zm17-41l8 8-8 8-8-8z" fill="#fff"/><path d="M7 63l1 1-2 2 2 2-2 2 1 1 1-1-2-2 2-2-2-2zm4 0l1 1-2 2 2 2-2 2 1 1 1-1-2-2 2-2-2-2zm15-41.5l1 1-1 1-1-1zm-2 2l1 1-2 2 2 2-1 1-1-1 2-2-2-2zm4 0l1 1-2 2 2 2-1 1-1-1 2-2-2-2zM48 46l1 1-1 1-1-1zm4 0l1 1-1 1-1-1zm-2 2l1 1-1 1-1-1zm-2 2l1 1-2 2 1 1 1-1-2-2zm4 0l1 1-2 2 1 1 1-1-2-2zM67 4.5l1 1-2 2 1 1 1-1-2-2zm-2 4l1 1-2 2 1 1 1-1-2-2zm4 0l1 1-2 2 1 1 1-1-2-2zM48 80l1 1-2 2 1 1 1-1-2-2zm4 0l1 1-2 2 1 1 1-1-2-2zm-2 4l1 1-1 1-1-1zm-2 2l1 1-1 1-1-1zm4 0l1 1-1 1-1-1zm15-47.5l1 1-1 1-1-1zm-2 2l1 1-1 1-1-1zm4 0l1 1-1 1-1-1zm-2 2l1 1-1 1-1-1zm-2 2l1 1-1 1-1-1zm4 0l1 1-1 1-1-1zM89 63l1 1-1 1-1-1zm4 0l1 1-1 1-1-1zm-2 2l1 1-2 2 1 1 1-1-2-2zm-2 4l1 1-1 1-1-1zm4 0l1 1-1 1-1-1zm15-47.5l1 1-2 2 2 2-1 1-1-1 2-2-2-2zm-2 6l1 1-1 1-1-1zm4 0l1 1-1 1-1-1zm-86 77l1 1-2 2 2 2-1 1-1-1 2-2-2-2zm4 0l1 1-2 2 2 2-1 1-1-1 2-2-2-2zm-2 6l1 1-1 1-1-1zM43 63l1 1-1 1-1-1zm-2 2l1 1-2 2 1 1 1-1-2-2zm4 0l1 1-2 2 1 1 1-1-2-2zm-2 4l1 1-1 1-1-1zm22 18.5l1 1-1 1-1-1zm4 0l1 1-1 1-1-1zm-2 2l1 1-1 1-1-1zm-2 2l1 1-1 1-1-1zm4 0l1 1-1 1-1-1zm-2 2l1 1-1 1-1-1zM84 46l1 1-2 2 1 1 1-1-2-2zm-2 4l1 1-1 1-1-1zm4 0l1 1-1 1-1-1zm-2 2l1 1-1 1-1-1zm-19 69.5l1 1-2 2 1 1 1-1-2-2zm4 0l1 1-2 2 1 1 1-1-2-2zm-2 4l1 1-2 2 1 1 1-1-2-2zM84 80l1 1-1 1-1-1zm-2 2l1 1-1 1-1-1zm4 0l1 1-1 1-1-1zm-2 2l1 1-2 2 1 1 1-1-2-2zm22 20.5l1 1-1 1-1-1zm4 0l1 1-1 1-1-1zm-2 2l1 1-2 2 2 2-1 1-1-1 2-2-2-2zM125 63l1 1-2 2 2 2-2 2 1 1 1-1-2-2 2-2-2-2z" fill="#d22"/></svg>