<svg xmlns="http://www.w3.org/2000/svg" viewBox="0 0 134 134" width="536" height="536"><circle cx="9" cy="67" r="7.9"/><circle cx="26" cy="26" r="7.9"/><circle cx="50" cy="50" r="7.9"/><circle cx="67" cy="9" r="7.9"/><circle cx="50" cy="84" r="7.9"/><circle cx="67" cy="43" r="7.9"/><circle cx="91" cy="67" r="7.9"/><circle cx="108" cy="26" r="7.9"/><circle cx="26" cy="108" r="7.9"/><circle cx="43" cy="67" r="7.9"/><circle cx="67" cy="91" r="7.9"/><circle cx="84" cy="50" r="7.9"/><circle cx="67" cy="125" r="7.9"/><circle cx="84" cy="84" r="7.9"/><circle cx="108" cy="108" r="7.9"/><circle cx="125" cy="67" r="7.9"/><g fill="none" stroke="#fff"><path d="M43 67L26 26" stroke="#000" stroke-width="2.4"/><path d="M43 67L26 26"/><path d="M9 67l17-41L67 9l41 17 17 41-17 41-41 17-41-17L9 67l41-17L67 9" stroke="#000" stroke-width="2.4"/><path d="M9 67l17-41L67 9l41 17 17 41-17 41-41 17-41-17L9 67l41-17L67 9"/><path d="M26 26l41 17 41-17" stroke="#000" stroke-width="2.4"/><path d="M26 26l41 17 41-17"/><path d="M67 9l17 41 41 17" stroke="#000" stroke-width="2.4"/><path d="M67 9l17 41 41 17"/><path d="M108 26L91 67l17 41" stroke="#000" stroke-width="2.4"/><path d="M108 26L91 67l17 41"/><path d="M125 67L84 84l-17 41" stroke="#000" stroke-width="2.4"/><path d="M125 67L84 84l-17 41"/><path d="M108 108L67 91l-41 17" stroke="#000" stroke-width="2.4"/><path d="M108 108L67 91l-41 17"/><path d="M67 125L50 84 9 67" stroke="#000" stroke-width="2.4"/><path d="M67 125L50 84 9 67"/><path d="M26 108l17-41" stroke="#000" stroke-width="2.4"/><path d="M26 108l17-41"/><path d="M58.5 63.5L67 43" stroke="#000" stroke-linecap="round" stroke-width="2.4"/><path d="M58.5 63.5L67 43"/><path d="M43 67l41-17" stroke="#000" stroke-width="2.4"/><path d="M43 67l41-17"/><path d="M50 50l41 17" stroke="#000" stroke-width="2.4"/><path d="M50 50l41 17"/><path d="M67 43l17 41" stroke="#000" stroke-width="2.4"/><path d="M67 43l17 41"/><path d="M84 50L67 91" stroke="#000" stroke-width="2.4"/><path d="M84 50L67 91"/><path d="M91 67L50 84" stroke="#000" stroke-width="2.4"/><path d="M91 67L50 84"/><path d="M84 84L43 67" stroke="#000" stroke-width="2.4"/><path d="M84 84L43 67"/><path d="M67 91L50 50" stroke="#000" stroke-width="2.4"/><path d="M67 91L50 50"/><path d="M50 84l8.5-20.5" stroke="#000" stroke-width="2.4"/><path d="M50 84l8.5-20.5" stroke-linecap="round"/></g><g fill="#fff"><circle cx="9" cy="67" r="7.2"/><circle cx="26" cy="26" r="7.2"/><circle cx="50" cy="50" r="7.2"/><circle cx="67" cy="9" r="7.2"/><circle cx="50" cy="84" r="7.2"/><circle cx="67" cy="43" r="7.2"/><circle cx="91" cy="67" r="7.2"/><circle cx="108" cy="26" r="7.2"/><circle cx="26" cy="108" r="7.2"/><circle cx="43" cy="67" r="7.2"/><circle cx="67" cy="91" r="7.2"/><circle cx="84" cy="50" r="7.2"/><circle cx="67" cy="125" r="7.2"/><circle cx="84" cy="84" r="7.2"/><circle cx="108" cy="108" r="7.2"/><circle cx="125" cy="67" r="7.2"/></g><path d="M7 63l1 1-2 2 2 2-2 2 1 1 1-1-2-2 2-2-2-2zm4 0l1 1-2 2 2 2-2 2 1 1 1-1-2-2 2-2-2-2zm15-41.3l1 1-1 1-1-1zm-2 2l1 1-2 2 2 2-1 1-1-1 2-2-2-2zm4 0l1 1-2 2 2 2-1 1-1-1 2-2-2-2zM48 46l1 1-1 1-1-1zm4 0l1 1-1 1-1-1zm-2 2l1 1-1 1-1-1zm-2 2l1 1-2 2 1 1 1-1-2-2zm4 0l1 1-2 2 1 1 1-1-2-2zM67 4.7l1 1-2 2 1 1 1-1-2-2zm-2 4l1 1-2 2 1 1 1-1-2-2zm4 0l1 1-2 2 1 1 1-1-2-2zM48 80l1 1-2 2 1 1 1-1-2-2zm4 0l1 1-2 2 1 1 1-1-2-2zm-2 4l1 1-1 1-1-1zm-2 2l1 1-1 1-1-1zm4 0l1 1-1 1-1-1zm15-47.3l1 1-1 1-1-1zm-2 2l1 1-1 1-1-1zm4 0l1 1-1 1-1-1zm-2 2l1 1-1 1-1-1zm-2 2l1 1-1 1-1-1zm4 0l1 1-1 1-1-1zM89 63l1 1-1 1-1-1zm4 0l1 1-1 1-1-1zm-2 2l1 1-2 2 1 1 1-1-2-2zm-2 4l1 1-1 1-1-1zm4 0l1 1-1 1-1-1zm15-47.3l1 1-2 2 2 2-1 1-1-1 2-2-2-2zm-2 6l1 1-1 1-1-1zm4 0l1 1-1 1-1-1zm-86 76.6l1 1-2 2 2 2-1 1-1-1 2-2-2-2zm4 0l1 1-2 2 2 2-1 1-1-1 2-2-2-2zm-2 6l1 1-1 1-1-1zM43 63l1 1-1 1-1-1zm-2 2l1 1-2 2 1 1 1-1-2-2zm4 0l1 1-2 2 1 1 1-1-2-2zm-2 4l1 1-1 1-1-1zm22 18.3l1 1-1 1-1-1zm4 0l1 1-1 1-1-1zm-2 2l1 1-1 1-1-1zm-2 2l1 1-1 1-1-1zm4 0l1 1-1 1-1-1zm-2 2l1 1-1 1-1-1zM84 46l1 1-2 2 1 1 1-1-2-2zm-2 4l1 1-1 1-1-1zm4 0l1 1-1 1-1-1zm-2 2l1 1-1 1-1-1zm-19 69.3l1 1-2 2 1 1 1-1-2-2zm4 0l1 1-2 2 1 1 1-1-2-2zm-2 4l1 1-2 2 1 1 1-1-2-2zM84 80l1 1-1 1-1-1zm-2 2l1 1-1 1-1-1zm4 0l1 1-1 1-1-1zm-2 2l1 1-2 2 1 1 1-1-2-2zm22 20.3l1 1-1 1-1-1zm4 0l1 1-1 1-1-1zm-2 2l1 1-2 2 2 2-1 1-1-1 2-2-2-2zM125 63l1 1-2 2 2 2-2 2 1 1 1-1-2-2 2-2-2-2z" fill="#d22"/></svg>