<svg viewBox="-34 -34 68 68" xmlns="http://www.w3.org/2000/svg"><g fill="none" stroke="#000"><circle r="6.5"/><circle r="19.5"/><path d="M-24 0h4.5M0-24v4.5M-14-14l9.4 9.4m9.2 9.2L14 14m-28 0l9.4-9.4m9.2-9.2L14-14m5.5 14h13.7m-4-4l4 4-4 4M0 19.5v13.7m-4-4l4 4 4-4"/></g><path d="M-31-3l-1 1-1-1 1-1m1 5l-1 1-1-1 1-1m3-1l-1 1-1-1 1-1m1 5l-1 1-1-1 1-1m3-5l-1 1-1-1 1-1m1 5l-1 1-1-1 1-1m14-3l-1 1-1-1 1-1m1 5l-2 2 1 1 1-1-2-2 1-1m3-1l-1 1-1-1 1-1m3-1l-1 1-1-1 1-1m1 5l-2 2 1 1 1-1-2-2 1-1m10-14l-2 2 2 2-1 1-1-1 2-2-2-2 1-1m3-1l-1 1-1-1 1-1m3 3l-2 2 2 2-1 1-1-1 2-2-2-2 1-1m-3-16l-1 1-1-1 1-1m1 5l-1 1-1-1 1-1m3-5l-1 1-1-1 1-1m1 5l-1 1-1-1 1-1m3-1l-1 1-1-1 1-1m1 5l-1 1-1-1 1-1M1-3l-2 2 2 2-2 2 1 1 1-1-2-2 2-2-2-2 1-1m12 1l-2 2 2 2-1 1-1-1 2-2-2-2 1-1m3 7l-1 1-1-1 1-1m3-5l-2 2 2 2-1 1-1-1 2-2-2-2 1-1M-1 10l-2 2 1 1 1-1-2-2 1-1m1 7l-1 1-1-1 1-1m3-1l-1 1-1-1 1-1m3-3l-2 2 1 1 1-1-2-2 1-1m1 7l-1 1-1-1 1-1m24 8l-2 2 2 2-2 2 1 1 1-1-2-2 2-2-2-2 1-1m5 1l-2 2 2 2-2 2 1 1 1-1-2-2 2-2-2-2 1-1" fill="#d22"/></svg>