<svg xmlns="http://www.w3.org/2000/svg" viewBox="-17 -17 34 34"><mask id="a"><circle r="17" fill="#fff"/></mask><circle r="17"/><circle r="5" fill="#d22"/><path d="M11.3-11.3a16 16 0 010 22.6L4.2 4.2a6 6 0 000-8.4m-15.5-7.1a16 16 0 000 22.6l7.1-7.1a6 6 0 010-8.4" fill="#fff"/><path d="M-4.5 0a6.2 6.2 0 006.2 6.2 8.5 8.5 0 008.5-8.5A11.7 11.7 0 00-1.5-14a16 16 0 00-16 16" fill="none" stroke="#d22" mask="url(#a)"/><path d="M-13-4l1 1-1 1-1-1m1 3l1 1-2 2 1 1 1-1-2-2m3-3l1 1-1 1-1-1m3-3l1 1-1 1-1-1m1 3l1 1-2 2 1 1 1-1-2-2M9-4l1 1-2 2 2 2-1 1-1-1 2-2-2-2m3 5l1 1-1 1-1-1m3-7l1 1-2 2 2 2-1 1-1-1 2-2-2-2"/><path d="M-2-13l1 1-2 2 2 2-1 1-1-1 2-2-2-2m1 19l1 1-2 2 1 1 1-1-2-2m1 5l1 1-1 1-1-1m3-29l1 1-1 1-1-1M0-4l1 1-2 2 2 2-2 2 1 1 1-1-2-2 2-2-2-2m1 14l1 1-1 1-1-1m3-25l1 1-2 2 2 2-1 1-1-1 2-2-2-2M2 7l1 1-2 2 1 1 1-1-2-2m1 5l1 1-1 1-1-1" fill="#fff"/></svg>