<svg xmlns="http://www.w3.org/2000/svg" viewBox="0 0 10000 10000"><path d="M5000 10000V8617m87 1382l16-1384m71 1382l31-1386m57 1382l45-1389m42 1384l60-1394m27 1387l75-1401m12 1393l89-1408m-3 1398l104-1417m-17 1405l118-1427m-32 1414l131-1438m-45 1424l144-1452m-58 1436l156-1466m-70 1449l167-1482m-82 1463l178-1498m-93 1477l189-1516m-105 1495l199-1536m-115 1512l207-1555m-123 1531l215-1578m-132 1551l222-1599m-139 1572l228-1624m-146 1594l233-1648m-151 1618l237-1674m-156 1642l240-1701m-159 1668l241-1729m-161 1694l242-1757m-163 1721l242-1787m-163 1749l240-1817m-162 1778l237-1848m-160 1808l233-1880m-156 1838l226-1912m-150 1869l219-1945m-144 1901l211-1979m-136 1933l200-2013m-127 1966l189-2048m-116 2000l176-2083m-104 2034l161-2120m-90 2069l145-2155m-75 2103l127-2191m-58 2138l108-2228m-39 2174l86-2265m-19 2209l64-2301m2 2245l40-2339m26 2281l13-2376m51 2317l-14-2413m77 2353l-43-2449m106 2388l-75-2486m136 2423l-108-2522m168 2459l-142-2558m201 2494l-178-2594m236 2528l-216-2629m272 2563l-255-2664m311 2597l-297-2698m351 2629l-340-2731m393 2662l-385-2765m437 2695l-431-2797m482 2726l-479-2829m528 2757l-529-2859m577 2786l-580-2889m627 2816l-633-2918m679 2843l-688-2945m732 2870l-744-2972m787 2896l-802-2998m844 2921l-862-3022m902 2945l-922-3045m961 2967l-985-3067m1023 2988L8483 4026m1085 3008L8454 3927m1149 3027L8422 3830m1214 3043L8388 3733m1280 3059L8350 3638m1348 3072L8310 3543m1418 3085L8268 3450m1487 3095L8223 3358m1559 3104L8175 3267m1631 3111L8124 3178m1706 3116L8071 3090m1780 3120L8016 3004m1856 3121L7958 2919m1933 3121L7898 2836m2010 3118L7835 2755m2089 3113L7771 2675m2167 3107L7704 2598m2247 3098L7634 2522m2329 3087L7563 2448m2410 3075L7490 2377m2491 3059L7414 2307m2574 3042L7337 2240m2656 3022L7258 2174m2739 3000L7177 2112m2822 2975L7094 2051m2906 2949L7009 1993m2990 2920L6923 1937m3074 2889L6836 1884m3157 2854L6747 1833m3241 2818L6656 1785m3325 2779L6564 1739m3409 2738L6471 1696m3492 2695L6377 1656m3574 2648L6281 1618m3657 2600L6185 1583m3739 2549L6088 1551m3820 2495L5989 1521m3902 2439L5890 1495m3982 2380L5791 1471m4060 2319L5690 1450m4140 2256L5589 1432m4217 2190L5488 1416m4294 2122L5386 1404m4369 2051L5284 1394m4444 1978L5181 1388m4517 1902L5079 1384m4589 1824L4976 1383m4660 1744L4874 1385m4729 1661L4771 1390m4797 1576L4669 1398m4863 1489L4567 1409m4927 1399L4465 1423m4990 1307L4364 1440m5051 1213L4263 1459m5110 1117L4163 1481m5167 1019l-5266-994m5222 919l-5321-891m5275 816l-5373-785m5326 712l-5423-678m5375 605l-5471-569m5422 497l-5516-458m5465 387l-5559-346m5507 276l-5600-231m5547 162l-5638-115m5584 46l-5674 3m5618-70l-5706 122m5650-188l-5737 242m5679-308l-5765 365m5706-429l-5789 489m5729-552l-5811 613m5750-676l-5830 740m5767-801l-5846 867m5783-927l-5859 996m5795-1055L2476 2409m5804-1183L2404 2482m5810-1312L2333 2557m5814-1443L2265 2633m5813-1573L2199 2712m5810-1705L2135 2792M7939 955L2074 2874M7868 904L2015 2958M7796 855L1958 3043M7723 807L1904 3130M7650 760L1852 3219M7575 714L1803 3309M7500 670L1756 3400M7424 627L1712 3493M7347 585L1671 3587M7270 545L1632 3682M7192 506L1596 3778M7113 468L1563 3875M7034 432L1532 3973M6954 397L1504 4072M6873 364L1480 4171M6792 332L1457 4271M6710 302L1438 4372M6628 272L1422 4473M6545 245L1408 4575M6462 218L1398 4677M6378 194L1390 4779M6294 170L1385 4882M6210 149L1383 4984M6125 128L1384 5087M6040 109L1388 5189M5954 92L1395 5292M5868 76L1405 5394M5782 62L1417 5496M5696 49L1433 5597M5609 37L1451 5698M5523 27L1472 5798M5436 19L1496 5898M5349 12L1523 5997M5262 7L1553 6095M5174 3L1585 6192M5087 1L1621 6289M5000 0L1659 6384M4913 1L1699 6478M4826 3L1742 6571M4738 7L1788 6663M4651 12L1837 6753M4564 19L1888 6842M4477 27L1941 6930M4391 37L1997 7016M4304 49L2056 7100M4218 62L2116 7183M4132 76L2179 7264M4046 92L2245 7343M3960 109L2312 7420M3875 128L2382 7495M3790 149L2454 7569M3706 170L2528 7640M3622 194L2603 7709m935-7491l-857 7558m774-7531l-694 7595m611-7568l-530 7631m448-7601l-364 7661m282-7631l-198 7688m117-7656l-30 7712m-51-7679l139 7731M2966 432l308 7746M2887 468l478 7758M2808 506l649 7765M2730 545l821 7769M2653 585l992 7768M2576 627l1165 7763M2500 670l1337 7755M2425 714l1510 7742M2350 760l1683 7725M2277 807l1856 7704M2204 855l2029 7679M2132 904l2201 7651M2061 955l2373 7617M1991 1007l2545 7580M1922 1060l2716 7539M1853 1114l2887 7493M1786 1170l3056 7443M1720 1226l3225 7390M1654 1284l3393 7332M1590 1343l3560 7271M1527 1403l3725 7205M1464 1464l3891 7135M1403 1527l4053 7061M1343 1590l4215 6983M1284 1654l4375 6902M1226 1720l4534 6816M1170 1786l4690 6727M1114 1853l4845 6634M1060 1922l4997 6537M1007 1991l5148 6436M955 2061l5297 6332M904 2132l5444 6224M855 2204l5587 6113M807 2277l5729 5998M760 2350l5868 5880M714 2425l6005 5757M670 2500l6138 5632M627 2576l6269 5504M585 2653l6398 5372M545 2730l6523 5237M506 2808l6645 5099M468 2887l6765 4958M432 2966l6881 4815M397 3046l6994 4668M364 3127l7103 4518M332 3208l7209 4366M302 3290l7311 4211M272 3372l7410 4054M245 3455l7505 3894M218 3538l7598 3732M194 3622l7685 3567M170 3706l7770 3401M149 3790l7849 3232M128 3875l7927 3062M109 3960l7999 2889M92 4046l8067 2714M76 4132l8132 2538M62 4218l8192 2360M49 4304l8249 2181M37 4391l8301 2000M27 4477l8350 1819M19 4564l8393 1636M12 4651l8433 1452M7 4738l8467 1266M3 4826l8499 1080M1 4913l8525 893M0 5000l8547 706M1 5087l8565 518M3 5174l8579 329M7 5262l8587 140M12 5349l8592-50M19 5436l8592-239M27 5523l8589-428M37 5609l8580-617M49 5696l8566-806M62 5782l8548-995M76 5868l8527-1183M92 5954l8501-1371M109 6040l8470-1559M128 6125l8435-1745M149 6210l8395-1931M170 6294l8352-2115M194 6378l8304-2299M218 6462l8252-2482M245 6545l8195-2663M272 6628l8135-2843M302 6710l8069-3021M332 6792l8000-3198M364 6873l7927-3373M397 6954l7850-3547M432 7034l7769-3718M468 7113l7684-3887M506 7192l7594-4055M545 7270l7501-4220M585 7347l7405-4383M627 7424l7304-4543M670 7500l7199-4702M714 7575l7092-4857M760 7650l6980-5011M807 7723l6865-5161M855 7796l6747-5308M904 7868l6625-5453M955 7939l6500-5595M1007 8009l6372-5733M1060 8078l6241-5869M1114 8147l6106-6002M1170 8214l5969-6131M1226 8280l5829-6256M1284 8346l5686-6379M1343 8410l5540-6498M1403 8473l5392-6613M1464 8536l5241-6726M1527 8597l5087-6834M1590 8657l4931-6938M1654 8716l4774-7039M1720 8774l4613-7136M1786 8830l4451-7229M1853 8886l4287-7318M1922 8940l4120-7403M1991 8993l3953-7484M2061 9045l3783-7562M2132 9096l3612-7635M2204 9145l3440-7704M2277 9193l3265-7769M2350 9240l3091-7830M2425 9286l2914-7887M2500 9330l2737-7939M2576 9373l2558-7987M2653 9415l2379-8032M2730 9455l2199-8071M2808 9494l2018-8107M2887 9532l1837-8138M2966 9568l1656-8165M3046 9603l1474-8188M3127 9636l1292-8206M3208 9668l1110-8220M3290 9698l927-8229m-845 8259l745-8235m-662 8262l563-8236m-480 8263l382-8234m-298 8258l201-8226m-117 8250l20-8215m64 8236l-159-8198m244 8219l-339-8179m424 8198l-517-8155m603 8172l-695-8127m781 8143l-872-8095m958 8109L3171 1880m1133 8071L3083 1933m1308 8030L2997 1988m1480 7985L2913 2046m1651 7935L2830 2107m1821 7881L2749 2170m1989 7823L2669 2234m2157 7763L2592 2302m2321 7697L2516 2371m2484 7629L2443 2443m2644 7556L2371 2516m2803 7481L2302 2592m2960 7401L2234 2669m3115 7319L2170 2749m3266 7232L2107 2830m3416 7143L2046 2913m3563 7050L1988 2997m3708 6954L1933 3083m3849 6855L1880 3171m3988 6753L1829 3260m4125 6648L1781 3351m4259 6540L1736 3443m4389 6429L1693 3536m4517 6315L1653 3631m4641 6199L1615 3726m4763 6080L1580 3823m4882 5959L1548 3920m4997 5835L1519 4018m5109 5710L1493 4117m5217 5581L1469 4217m5323 5451L1448 4318m5425 5318L1430 4419m5524 5184L1415 4520m5619 5048L1403 4622m5710 4910L1394 4724m5798 4770L1387 4826m5883 4629L1384 4929m5963 4486L1383 5032m6041 4341L1386 5134m6114 4196L1391 5237m6184 4049L1399 5339m6251 3901L1410 5441m6313 3752L1424 5542m6372 3603L1441 5644m6427 3452L1461 5744m6478 3301L1483 5844m6526 3149L1509 5944m6569 2996L1537 6042m6610 2844L1568 6140m6646 2690L1601 6237m6679 2537L1638 6333m6708 2383L1677 6428m6733 2229L1719 6521m6754 2076L1763 6614m6773 1922L1810 6705m6787 1768L1860 6795m6797 1615L1912 6883m6804 1463L1967 6970m6807 1310L2024 7055m6806 1159L2083 7139m6803 1008l-6741-927m6795 858l-6731-777m6784 708l-6717-630m6769 560l-6701-484m6752 413l-6681-339m6730 267l-6657-194m6705 121l-6631-51m6678-22l-6601 90m6647-165l-6568 231m6612-306l-6532 369m6575-445l-6492 507m6534-584l-6451 643m6491-720l-6405 776m6444-854l-6357 908m6395-987L3226 8152m6342-1118L3316 8201m6287-1247L3407 8247m6229-1374L3500 8291m6168-1499L3594 8332m6104-1622L3689 8371m6039-1743L3785 8407m5970-1862L3882 8440m5900-1978L3980 8470m5826-2092L4079 8498m5751-2204L4179 8522m5672-2312L4279 8544m5593-2419L4380 8563m5511-2523L4481 8579m5427-2625L4583 8593m5341-2725L4685 8603m5253-2821L4787 8610m5164-2914L4890 8615m5073-3006L4992 8617m4981-3094L5095 8616m4886-3180L5197 8611m4791-3262L5299 8604m4694-3342L5402 8594m4595-3420L5503 8582m4496-3495L5605 8566m4395-3566L5706 8547m4293-3634L5806 8526m4191-3700L5906 8502m4087-3764L6004 8474m3984-3823L6103 8445m3878-3881L6200 8412m3773-3935L6296 8377m3667-3986L6391 8338m3560-4034L6485 8298m3453-4080L6578 8254m3346-4122L6670 8208m3238-4162L6760 8159m3131-4199L6849 8108m3023-4233L6937 8055m2914-4265L7022 7998m2808-4292L7107 7940m2699-4318L7189 7879m2593-4341L7270 7816m2485-4361L7349 7750m2379-4378L7426 7682m2272-4392L7501 7613m2167-4405L7574 7541m2062-4414L7645 7467m1958-4421L7714 7391m1854-4425L7781 7313m1751-4426L7845 7233m1649-4425L7907 7151m1548-4421L7967 7068m1448-4415L8025 6983m1348-4407L8080 6896m1250-4396L8132 6808m1154-4383L8182 6719m1058-4369L8230 6628m963-4351l-918 4259m870-4332l-828 4238m779-4310l-740 4216m689-4287l-652 4191m600-4261l-566 4164m513-4233l-481 4135m427-4204l-399 4106m343-4173l-317 4074m261-4140l-238 4040m180-4106l-160 4005m101-4069l-84 3968m24-4031l-9 3929m-52-3992l63 3891m-126-3952l135 3849m-198-3909l204 3807m-268-3866l270 3763m-336-3821l336 3719m-402-3775l399 3672m-466-3728l460 3626m-529-3680l521 3578m-590-3631l578 3529M7939 955l633 3479M7868 904l687 3429M7796 855l738 3378M7723 807l788 3326M7650 760l835 3273M7575 714l881 3221M7500 670l925 3167M7424 627l966 3114M7347 585l1006 3060M7270 545l1044 3006M7192 506l1079 2951M7113 468l1113 2897M7034 432l1144 2842M6954 397l1174 2788M6873 364l1203 2733M6792 332l1228 2678M6710 302l1253 2624M6628 272l1275 2570M6545 245l1295 2516M6462 218l1314 2463M6378 194l1331 2409M6294 170l1346 2358M6210 149l1359 2305M6125 128l1370 2254M6040 109l1380 2203M5954 92l1389 2153M5868 76l1396 2103M5782 62l1401 2054M5696 49l1404 2007M5609 37l1407 1960M5523 27l1407 1914M5436 19l1406 1869M5349 12l1404 1825M5262 7l1401 1781M5174 3l1397 1739M5087 1l1391 1698M5000 0l1384 1659M4913 1l1376 1620M4826 3l1366 1582M4738 7l1357 1546M4651 12l1346 1511M4564 19l1334 1477M4477 27l1321 1445M4391 37l1307 1414M4304 49l1293 1384M4218 62l1278 1355M4132 76l1262 1329M4046 92l1246 1303M3960 109l1229 1279M3875 128l1212 1256M3790 149l1194 1234M3706 170l1176 1215M3622 194l1157 1196M3538 218l1139 1180M3455 245l1120 1163M3372 272l1101 1150M3290 302l1082 1136M3208 332l1063 1125M3127 364l1044 1116M3046 397l1026 1107M2966 432l1007 1100M2887 468l988 1095M2808 506l970 1090M2730 545l952 1087M2653 585l934 1086M2576 627l917 1085M2500 670l900 1086M2425 714l884 1089M2350 760l869 1092M2277 807l853 1097M2204 855l839 1103M2132 904l826 1111M2061 955l813 1119m-883-1067l801 1128m-870-1075l790 1139m-859-1085l780 1151m-847-1095l771 1163m-837-1107l762 1178m-828-1120l755 1192m-819-1133l749 1208m-812-1148l743 1224m-806-1163l740 1242m-801-1179l737 1259m-797-1196l736 1278m-795-1214l735 1297m-793-1231l736 1317m-792-1251l738 1338m-794-1271l742 1359m-796-1290l747 1380m-800-1311l753 1402M955 2061l760 1425M904 2132l770 1448M855 2204l780 1470M807 2277l792 1493M760 2350l805 1517M714 2425l820 1540M670 2500l836 1564M627 2576l854 1587M585 2653l874 1610M545 2730l895 1634M506 2808l917 1657M468 2887l941 1680M432 2966l966 1703M397 3046l993 1725M364 3127l1021 1747M332 3208l1051 1768M302 3290l1082 1789M272 3372l1116 1809M245 3455l1149 1829M218 3538l1186 1848M194 3622l1222 1866M170 3706l1262 1883M149 3790l1301 1900M128 3875l1343 1916M109 3960l1386 1930M92 4046l1429 1943M76 4132l1475 1956M62 4218l1521 1967M49 4304l1569 1977M37 4391l1619 1986M27 4477l1669 1994M19 4564l1720 2000M12 4651l1773 2005M7 4738l1826 2009M3 4826l1881 2010M1 4913l1936 2010M0 5000l1993 2009M1 5087l2050 2007M3 5174l2109 2003M7 5262l2167 1996M12 5349l2228 1988M19 5436l2288 1978M27 5523l2350 1967M37 5609l2411 1954M49 5696l2473 1938M62 5782l2536 1922M76 5868l2599 1903M92 5954l2663 1881M109 6040l2727 1858M128 6125l2791 1833M149 6210l2855 1806M170 6294l2920 1777M194 6378l2984 1746M218 6462l3049 1713M245 6545l3113 1678M272 6628l3178 1640M302 6710l3241 1600M332 6792l3306 1558M364 6873l3369 1515M397 6954l3433 1468M432 7034l3495 1420M468 7113l3558 1370M506 7192l3619 1317M545 7270l3680 1263M585 7347l3740 1206M627 7424l3799 1147M670 7500l3858 1086M714 7575l3916 1023M760 7650l3972 957M807 7723l4027 890M855 7796l4082 820M904 7868l4135 749M955 7939l4187 675m-4135-605l4237 599m-4184-530l4287 522m-4233-453l4335 442m-4279-375l4380 361m-4324-295l4425 278m-4367-212l4468 192m-4409-128l4509 105m-4449-42l4548 16m-4487 47l4586-75m-4523 136l4621-167m-4558 227l4654-261m-4590 320l4686-357m-4620 415l4715-454m-4649 510l4743-552m-4676 608l4768-653m-4699 707l4790-754m-4721 807l4811-857m-4741 909l4829-961M2132 9096l4844-1067M2204 9145l4858-1173M2277 9193l4868-1281M2350 9240l4877-1390M2425 9286l4882-1500M2500 9330l4885-1611M2576 9373l4885-1723M2653 9415l4882-1835M2730 9455l4877-1948M2808 9494l4869-2062M2887 9532l4858-2177M2966 9568l4845-2292M3046 9603l4828-2408M3127 9636l4808-2523M3208 9668l4786-2639M3290 9698l4760-2755M3372 9728l4732-2872M3455 9755l4701-2988M3538 9782l4666-3105M3622 9806l4629-3221M3706 9830l4588-3337M3790 9851l4545-3452M3875 9872l4499-3569M3960 9891l4449-3684M4046 9908l4396-3798M4132 9924l4340-3912M4218 9938l4282-4025M4304 9951l4220-4137M4391 9963l4155-4250M4477 9973l4088-4361M4564 9981l4016-4470M4651 9988l3943-4579M4738 9993l3866-4686M4826 9997l3785-4792M4913 9999l3702-4896m-3615 4897l3617-5000M5087 9999l3528-5102M5174 9997l3437-5202M5262 9993l3342-5300M5349 9988l3245-5397M5436 9981l3144-5492M5523 9973l3042-5585M5609 9963l2937-5676M5696 9951l2828-5765M5782 9938l2718-5851M5868 9924l2604-5936M5954 9908l2488-6018M6040 9891l2369-6098M6125 9872l2249-6175M6210 9851l2125-6250M6294 9830l2000-6323M6378 9806l1873-6391M6462 9782l1742-6459M6545 9755l1611-6522M6628 9728l1476-6584M6710 9698l1340-6641M6792 9668l1202-6697M6873 9636l1062-6749m-981 6716l920-6798m-840 6763l777-6844m-698 6808l632-6887m-553 6849l485-6926m-407 6887l337-6962m-260 6922l188-6995m-111 6953l37-7023m39 6980l-115-7049m190 7005l-268-7072m343 7026l-423-7090m496 7043l-578-7105m651 7057l-734-7117m806 7068l-892-7125m963 7074L6890 1916m1119 7077L6802 1864m1276 7076L6712 1814m1435 7072L6621 1767m1593 7063L6529 1722m1751 7052L6435 1680m1911 7036L6340 1641m2070 7016L6244 1604m2229 6993L6148 1570m2388 6966L6050 1539m2547 6934L5951 1511m2706 6899L5852 1485m2864 6861L5752 1462m3022 6818L5651 1442m3179 6772L5550 1425m3336 6722L5449 1411m3491 6667L5347 1400m3646 6609L5244 1392m3801 6547L5142 1386m3954 6482L5039 1383m4106 6413L4937 1384m4256 6339L4834 1387m4406 6263L4732 1393m4554 6182L4630 1402m4700 6098L4528 1414m4845 6010L4426 1429m4989 5918L4325 1447m5130 5823L4225 1467m5269 5725L4125 1491m5407 5622L4026 1517m5542 5517L3927 1546m5676 5408L3830 1578m5806 5295L3733 1612m5935 5180L3638 1650m6060 5060L3543 1690m6185 4938L3450 1732m6305 4813L3358 1777m6424 4685L3267 1825m6539 4553L3178 1876m6652 4418L3090 1929m6761 4281L3004 1984m6868 4141L2919 2042m6972 3998L2836 2102m7072 3852L2755 2165m7169 3703L2675 2229m7263 3553L2598 2296m7353 3400L2522 2366m7441 3243L2448 2437m7525 3086L2377 2510m7604 2926L2307 2586m7681 2763L2240 2663m7753 2599L2174 2742m7823 2432L2112 2823m7887 2264L2051 2906m7949 2094L1993 2991m8006 1922L1937 3077m8060 1749L1884 3164m8109 1574L1833 3253m8155 1398L1785 3344m8196 1220L1739 3436m8234 1041l-8277-948m8267 862l-8307-768m8295 681l-8333-585m8320 499l-8355-403m8341 317l-8373-220m8357 134l-8387-35m8370-51l-8396 150m8377-235l-8401 334m8380-419l-8401 520m8380-604l-8398 705m8374-789l-8390 890m8366-974L1404 4614m8351-1159L1394 4716m8334-1344L1388 4819m8310-1529L1384 4921m8284-1713L1383 5024m8253-1897L1385 5126m8218-2080L1390 5229m8178-2263L1398 5331m8134-2444L1409 5433m8085-2625L1423 5535m8032-2805L1440 5636m7975-2983L1459 5737m7914-3161L1481 5837m7849-3337L1506 5936m7780-3511L1534 6035m7706-3685L1565 6133m7628-3856L1599 6230m7546-4026L1635 6326m7461-4194L1674 6420m7371-4359L1715 6514m7278-4523L1760 6607m7180-4685L1807 6698m7079-4845L1856 6788m6974-5002L1908 6876m6866-5156L1962 6963m6754-5309L2019 7049m6638-5459L2079 7132m6518-5605L2140 7214m6396-5750L2204 7294m6269-5891L2270 7373m6140-6030L2339 7449m6007-6165L2409 7524m5871-6298L2482 7596m5732-6426L2557 7667m5590-6553L2633 7735m5445-6675L2712 7801m5297-6794L2792 7865M7939 955L2874 7926M7868 904L2958 7985M7796 855L3043 8042M7723 807L3130 8096M7650 760L3219 8148M7575 714L3309 8197M7500 670L3400 8244M7424 627L3493 8288M7347 585L3587 8329M7270 545L3682 8368M7192 506L3778 8404M7113 468L3875 8437M7034 432L3973 8468M6954 397L4072 8496M6873 364L4171 8520M6792 332L4271 8543M6710 302L4372 8562M6628 272L4473 8578M6545 245L4575 8592M6462 218L4677 8602M6378 194L4779 8610M6294 170L4882 8615M6210 149L4984 8617M6125 128L5087 8616m953-8507l-851 8503M5954 92l-662 8513M5868 76l-474 8519M5782 62l-286 8521M5696 49l-99 8518m12-8530l89 8512M5523 27l275 8501M5436 19l462 8485M5349 12l648 8465M5262 7l833 8440M5174 3l1018 8412M5087 1l1202 8378M5000 0l1384 8341M4913 1l1565 8300M4826 3l1745 8255M4738 7l1925 8205M4651 12l2102 8151M4564 19l2278 8093M4477 27l2453 8032M4391 37l2625 7966M4304 49l2796 7895M4218 62l2965 7822M4132 76l3132 7745M4046 92l3297 7663M3960 109l3460 7579M3875 128l3620 7490M3790 149l3779 7397M3706 170l3934 7302M3622 194l4087 7203M3538 218l4238 7101M3455 245l4385 6994M3372 272l4531 6886M3290 302l4673 6772M3208 332l4812 6658M3127 364l4949 6539M3046 397l5082 6418M2966 432l5212 6294M2887 468l5339 6167M2808 506l5463 6037M2730 545l5584 5904M2653 585l5700 5770M2576 627l5814 5632M2500 670l5925 5493M2425 714l6031 5351M2350 760l6135 5207M2277 807l6234 5060M2204 855l6330 4912M2132 904l6423 4763M2061 955l6511 4611M1991 1007l6596 4457M1922 1060l6677 4302M1853 1114l6754 4146M1786 1170l6827 3988M1720 1226l6896 3829M1654 1284l6962 3669M1590 1343l7024 3507M1527 1403l7081 3345M1464 1464l7135 3181M1403 1527l7185 3017M1343 1590l7230 2852M1284 1654l7272 2687M1226 1720l7310 2520M1170 1786l7343 2354M1114 1853l7373 2188M1060 1922l7399 2021M1007 1991l7420 1854M955 2061l7438 1687M904 2132l7452 1520M855 2204l7462 1354M807 2277l7468 1187M760 2350l7470 1022M714 2425l7468 856M670 2500l7462 692M627 2576l7453 528M585 2653l7440 364M545 2730l7422 202M506 2808l7401 41m-7439 38l7377-120M432 2966l7349-279M397 3046l7317-437M364 3127l7281-594M332 3208l7242-749M302 3290l7199-903M272 3372l7154-1054M245 3455l7104-1205M218 3538l7052-1354M194 3622l6995-1501M170 3706l6937-1646M149 3790l6873-1788M128 3875l6809-1930M109 3960l6740-2068M92 4046l6668-2205M76 4132l6594-2340M62 4218l6516-2472M49 4304l6436-2602M37 4391l6354-2729M27 4477l6269-2854M19 4564l6181-2976M12 4651l6091-3096M7 4738l5997-3212M3 4826l5903-3328M1 4913l5805-3439M0 5000l5706-3547M1 5087l5604-3653M3 5174l5500-3756M7 5262l5395-3856M12 5349l5287-3953M19 5436l5178-4047M27 5523l5068-4139M37 5609l4955-4226M49 5696l4841-4311M62 5782l4725-4392M76 5868l4609-4471M92 5954l4491-4547M109 6040l4372-4619M128 6125l4252-4688M149 6210l4130-4754M170 6294l4009-4816M194 6378l3885-4876M218 6462l3762-4932M245 6545l3637-4985M272 6628l3513-5035M302 6710l3387-5081M332 6792l3262-5124M364 6873l3136-5164M397 6954l3010-5201M432 7034l2884-5235M468 7113l2758-5265M506 7192l2631-5292M545 7270l2505-5316M585 7347l2379-5337M627 7424l2254-5355M670 7500l2128-5369M714 7575l2004-5381M760 7650l1879-5390M807 7723l1755-5395M855 7796l1633-5398M904 7868l1511-5397M955 7939l1389-5394M1007 8009l1269-5388M1060 8078l1149-5379M1114 8147l1031-5367m-975 5434l913-5353m-857 5419l798-5335m-740 5401l683-5316m-624 5380l569-5293m-509 5356l457-5268m-396 5331l346-5241m-283 5302l236-5211m-173 5271l129-5178m-65 5237l23-5144m43 5202l-82-5107m148 5163l-185-5067m252 5123l-285-5026m354 5080l-385-4982m454 5035l-482-4937m552 4989l-578-4889m649 4940l-671-4840m743 4889l-763-4789m836 4837l-853-4735m926 4782l-940-4681m1015 4727L1399 4661m1101 4669L1391 4763m1185 4610L1386 4866m1267 4549L1383 4968m1347 4487L1384 5071m1424 4423L1387 5174m1500 4358L1394 5276m1572 4292L1403 5378m1643 4225L1415 5480m1712 4156L1430 5581m1778 4087L1448 5682m1842 4016L1469 5783m1903 3945L1493 5883m1962 3872L1519 5982m2019 3800L1548 6080m2074 3726L1580 6177m2126 3653L1615 6274m2175 3577L1653 6369m2222 3503L1693 6464m2267 3427L1736 6557m2310 3351L1781 6649m2351 3275L1829 6740m2389 3198L1880 6829m2424 3122L1933 6917m2458 3046L1988 7003m2489 2970L2046 7087m2518 2894L2107 7170m2544 2818L2170 7251m2568 2742L2234 7331m2592 2666L2302 7408m2611 2591L2371 7484m2629 2516L2443 7557m2644 2442L2516 7629m2658 2368L2592 7698m2670 2295L2669 7766m2680 2222L2749 7830m2687 2151L2830 7893m2693 2080L2913 7954m2696 2009L2997 8012m2699 1939L3083 8067m2699 1871L3171 8120m2697 1804L3260 8171m2694 1737L3351 8219m2689 1672L3443 8264m2682 1608L3536 8307m2674 1544L3631 8347m2663 1483L3726 8385m2652 1421L3823 8420m2639 1362L3920 8452m2625 1303L4018 8481m2610 1247L4117 8507m2593 1191L4217 8531m2575 1137L4318 8552m2555 1084L4419 8570m2535 1033L4520 8585m2514 983l-2412-971m2491 935l-2389-926m2468 888l-2366-881m2444 842l-2341-839m2418 799l-2315-798m2392 756l-2290-759m2366 716l-2263-721m2338 677l-2236-685m2311 639l-2209-650m2282 603l-2181-617m2254 569l-2152-586m2224 537l-2124-557m2195 506l-2095-528m2165 476l-2065-502m2134 449l-2036-477m2105 423l-2007-454m2074 398l-1977-431m2043 375l-1947-412m2013 354l-1918-393m1982 334l-1889-376m1952 316l-1859-360m1922 299l-1831-346m1892 283l-1802-333m1862 270l-1774-322m1833 258l-1746-313m1804 247l-1719-304m1775 238l-1691-297m1747 230l-1666-292m1720 223l-1639-287m1692 218l-1614-285m1666 215l-1590-283m1641 212l-1567-283m1616 211l-1543-284m1591 211l-1521-285m1568 212l-1500-289m1546 214l-1480-293m1524 218l-1461-298m1504 222l-1442-305m1484 228l-1425-311m1465 234l-1409-320m1448 242l-1394-329m1432 250l-1380-339m1416 260l-1367-350m1402 270l-1356-361m1389 280l-1345-373m1377 292l-1336-386m1366 304l-1327-399m1357 317l-1321-413m1348 330l-1315-427m1342 344l-1312-442m1336 358l-1308-457m1332 373l-1308-473m1329 389l-1307-489m1328 404l-1309-505m1328 420l-1312-521m1329 435l-1315-537m1331 451l-1321-553m1335 467l-1328-569m1341 483l-1336-586m1348 499l-1346-601m1356 515l-1357-618m1365 531l-1370-633m1377 546l-1384-648m1389 561l-1399-664m1403 576l-1415-677m1417 590l-1433-692m1434 605l-1453-706m1452 619l-1473-719m1471 632l-1495-732m1491 644l-1519-742m1514 655l-1543-754m1536 667l-1569-764m1561 677l-1596-773m1586 687l-1625-782m1613 695l-1653-789m1640 703l-1684-796m1670 710l-1716-802m1700 716l-1749-806m1732 720l-1783-809m1764 724l-1817-812m1796 727l-1853-812m1832 728l-1890-813m1866 729l-1927-811m1903 727l-1966-808m1939 725l-2005-804m1978 721l-2046-798m2016 716l-2085-791m2055 709l-2127-782m2095 701l-2169-772m2136 691l-2212-760m2177 680l-2255-747m2219 668l-2299-732m2261 653l-2343-715m2304 637l-2387-697m2347 620l-2432-678m2390 601l-2477-656m2434 580l-2522-632m2478 557l-2567-607m2521 532l-2612-580m2565 507l-2657-552m2609 479l-2703-521m2654 449l-2748-488m2697 417l-2793-454m2741 384l-2838-418m2785 349l-2883-381m2829 312l-2927-340m2871 273l-2970-299m2914 233l-3014-256m2956 190l-3057-210m2998 146l-3099-163m3039 100l-3141-115m3080 52l-3181-63m3118 2l-3221-11m3158-49l-3260 43m3196-102l-3299 100m3233-158l-3335 158m3269-214l-3372 217m3305-273l-3407 279m3338-333l-3440 341m3371-394l-3473 406m3403-458l-3505 473m3434-524l-3535 541m3463-590l-3563 611m3490-659l-3590 682m3517-729l-3617 755m3542-801l-3640 830m3565-874l-3663 905m3587-948l-3683 983M7347 585L3645 1647M7270 545L3551 1686M7192 506L3457 1729M7113 468L3365 1774M7034 432L3274 1822M6954 397L3185 1872M6873 364L3097 1924M6792 332L3010 1980M6710 302L2926 2037M6628 272L2842 2097M6545 245L2761 2160M6462 218L2681 2224M6378 194L2603 2291M6294 170L2528 2360M6210 149L2454 2431M6125 128L2382 2505M6040 109L2312 2580M5954 92L2245 2657M5868 76L2179 2736M5782 62L2116 2817M5696 49L2056 2900M5609 37L1997 2984M5523 27L1941 3070M5436 19L1888 3158M5349 12L1837 3247M5262 7L1788 3337M5174 3L1742 3429M5087 1L1699 3522M5000 0L1659 3616M4913 1L1621 3711M4826 3L1585 3808M4738 7L1553 3905M4651 12L1523 4003M4564 19L1496 4102M4477 27L1472 4202M4391 37L1451 4302M4304 49L1433 4403M4218 62L1417 4504M4132 76L1405 4606M4046 92L1395 4708M3960 109L1388 4811M3875 128L1384 4913M3790 149L1383 5016M3706 170L1385 5118M3622 194L1390 5221M3538 218L1398 5323M3455 245L1408 5425M3372 272L1422 5527M3290 302L1438 5628M3208 332L1457 5729M3127 364L1480 5829M3046 397L1504 5928M2966 432L1532 6027M2887 468L1563 6125M2808 506L1596 6222M2730 545L1632 6318M2653 585l-982 5828m905-5786l-864 5880m788-5837l-744 5930m669-5886l-622 5977m547-5931l-498 6021m425-5974l-373 6063m300-6015l-246 6102m174-6053l-117 6138m46-6087l13 6171m-83-6119l144 6201m-213-6148l277 6228m-346-6174l412 6253m-479-6197l547 6273m-613-6217l684 6292m-750-6234l822 6307m-886-6248l961 6318M1527 1403l1100 6327M1464 1464l1242 6332M1403 1527l1383 6333M1343 1590l1525 6331M1284 1654l1667 6327M1226 1720l1811 6318M1170 1786l1954 6306M1114 1853l2098 6291M1060 1922l2242 6271M1007 1991l2386 6249M955 2061l2531 6224M904 2132l2676 6194M855 2204l2819 6161M807 2277l2963 6124M760 2350l3107 6085M714 2425l3251 6041M670 2500l3394 5994M627 2576l3536 5943M585 2653l3678 5888M545 2730l3819 5830M506 2808l3959 5769M468 2887l4099 5704M432 2966l4237 5636M397 3046l4374 5564M364 3127l4510 5488M332 3208l4644 5409M302 3290l4777 5326M272 3372l4909 5240M245 3455l5039 5151M218 3538l5168 5058M194 3622l5294 4962M170 3706l5419 4862M149 3790l5541 4760M128 3875l5663 4654M109 3960l5781 4545M92 4046l5897 4433M76 4132l6012 4317M62 4218l6123 4199M49 4304l6232 4078M37 4391l6340 3953M27 4477l6444 3827M19 4564l6545 3697M12 4651l6644 3564M7 4738l6740 3429M3 4826l6833 3290M1 4913l6922 3150M0 5000l7009 3007M1 5087l7093 2862M3 5174l7174 2714M7 5262l7251 2564M12 5349l7325 2411M19 5436l7395 2257M27 5523l7463 2100M37 5609l7526 1943M49 5696l7585 1782M62 5782l7642 1620M76 5868l7695 1457M92 5954l7743 1291M109 6040l7789 1124M128 6125l7830 956M149 6210l7867 786M170 6294l7901 616M194 6378l7930 444M218 6462l7957 271M245 6545l7978 97m-7951-14l7996-78M302 6710l8008-253M332 6792l8018-430M364 6873l8024-606M397 6954l8025-784M432 7034l8022-961M468 7113l8015-1139M506 7192l8003-1317M545 7270l7988-1495M585 7347l7968-1672M627 7424l7944-1850M670 7500l7916-2028M714 7575l7884-2205M760 7650l7847-2382M807 7723l7806-2557M855 7796l7761-2733M904 7868l7713-2907M955 7939l7659-3081M1007 8009l7601-3253M1060 8078l7540-3425M1114 8147l7475-3596M1170 8214l7405-3764M1226 8280l7332-3931M1284 8346l7254-4098M1343 8410l7172-4262M1403 8473l7086-4424M1464 8536l6997-4586M1527 8597l6903-4745M1590 8657l6806-4901M1654 8716l6705-5056M1720 8774l6600-5209M1786 8830l6492-5359M1853 8886l6380-5507M1922 8940l6264-5652M1991 8993l6145-5795M2061 9045l6023-5935M2132 9096l5897-6072M2204 9145l5768-6207M2277 9193l5635-6338M2350 9240l5500-6467M2425 9286l5361-6593M2500 9330l5219-6715M2576 9373l5074-6834M2653 9415l4927-6950M2730 9455l4777-7062M2808 9494l4624-7171M2887 9532l4468-7277M2966 9568l4310-7379M3046 9603l4149-7477M3127 9636l3986-7571M3208 9668l3821-7662M3290 9698l3653-7748M3372 9728l3484-7832M3455 9755l3312-7911M3538 9782l3139-7986M3622 9806l2963-8057M3706 9830l2787-8124M3790 9851l2609-8186M3875 9872l2428-8246M3960 9891l2247-8300M4046 9908l2064-8350M4132 9924l1880-8396M4218 9938l1695-8438M4304 9951l1510-8475M4391 9963l1322-8509M4477 9973l1135-8538M4564 9981l947-8561m-860 8568l758-8582m-671 8587l569-8597m-481 8601l379-8608m-292 8610l190-8614m-103 8615V1383m87 8616l-190-8614m277 8612l-379-8608m467 8604l-569-8597m656 8592l-758-8582m845 8575l-947-8561m1034 8553L4388 1435m1221 8528L4287 1454m1409 8497L4186 1476m1596 8462L4087 1500m1781 8424L3988 1528m1966 8380L3890 1558m2150 8333L3793 1591m2332 8281L3697 1626m2513 8225L3601 1665m2693 8165L3507 1706m2871 8100L3415 1749m3047 8033L3323 1796m3222 7959L3233 1844m3395 7884L3144 1896m3566 7802L3057 1950m3735 7718L2971 2006m3902 7630L2887 2065m4067 7538L2805 2126m4229 7442L2724 2189m4389 7343L2645 2255m4547 7239L2568 2323m4702 7132L2493 2393m4854 7022L2420 2465m5004 6908L2350 2539m5150 6791L2281 2615m5294 6671L2214 2693m5436 6547L2150 2773m5573 6420L2088 2855m5708 6290L2028 2938m5840 6158L1971 3024m5968 6021L1916 3110m6093 5883L1864 3198m6214 5742L1814 3288m6333 5598L1767 3379m6447 5451L1722 3471m6558 5303L1680 3565m6666 5151L1641 3660m6769 4997L1604 3756m6869 4841L1570 3852m6966 4684L1539 3950m7058 4523L1511 4049m7146 4361L1485 4148m7231 4198L1462 4248m7312 4032L1442 4349m7388 3865L1425 4450m7461 3697L1411 4551m7529 3527L1400 4653m7593 3356L1392 4756m7653 3183L1386 4858m7710 3010L1383 4961m7762 2835L1384 5063m7809 2660L1387 5166m7853 2484L1393 5268m7893 2307L1402 5370m7928 2130L1414 5472m7959 1952L1429 5574m7986 1773L1447 5675m8008 1595L1467 5775m8027 1417L1491 5875m8041 1238L1517 5974m8051 1060l-8022-961m8057 881l-8025-784m8058 703l-8024-606m8056 525l-8018-430m8048 348l-8008-253m8038 171l-7996-78m8023-5l-7978 97m8005-180l-7957 271m7981-355l-7930 444m7954-528l-7901 616m7922-700l-7867 786m7888-871l-7830 956m7849-1041L2102 7164m7806-1210L2165 7245m7759-1377L2229 7325m7709-1543L2296 7402m7655-1706L2366 7478m7597-1869L2437 7552m7536-2029L2510 7623m7471-2187L2586 7693m7402-2344L2663 7760m7330-2498L2742 7826m7255-2652L2823 7888m7176-2801L2906 7949m7094-2949L2991 8007m7008-3094L3077 8063m6920-3237L3164 8116m6829-3378L3253 8167m6735-3516L3344 8215m6637-3651L3436 8261m6537-3784L3529 8304m6434-3913L3623 8344m6328-4040L3719 8382m6219-4164L3815 8417m6109-4285L3912 8449m5996-4403L4011 8479m5880-4519L4110 8505m5762-4630L4209 8529m5642-4739L4310 8550m5520-4844L4411 8568m5395-4946L4512 8584m5270-5046L4614 8596m5141-5141L4716 8606m5012-5234L4819 8612m4879-5322L4921 8616m4747-5408L5024 8617m4612-5490L5126 8615m4477-5569L5229 8610m4339-5644L5331 8602m4201-5715L5433 8591m4061-5783L5535 8577m3920-5847L5636 8560m3779-5907L5737 8541m3636-5965L5837 8519m3493-6019L5936 8494m3350-6069L6035 8466m3205-6116L6133 8435m3060-6158L6230 8401m2915-6197L6326 8365m2770-6233L6420 8326m2625-6265L6514 8285m2479-6294L6607 8240m2333-6318L6698 8193m2188-6340L6788 8144m2042-6358L6876 8092m1898-6372L6963 8038m1753-6384L7049 7981m1608-6391L7132 7921m1465-6394L7214 7860m1322-6396L7294 7796m1179-6393L7373 7730m1037-6387l-961 6318m897-6377l-822 6307m756-6365l-684 6292m618-6348l-547 6273m480-6329l-412 6253m343-6307l-277 6228m208-6281l-144 6201m74-6253l-13 6171m-58-6222l117 6138M7796 855l246 6102M7723 807l373 6063M7650 760l498 6021M7575 714l622 5977M7500 670l744 5930M7424 627l864 5880M7347 585l982 5828M7270 545l1098 5773M7192 506l1212 5716M7113 468l1324 5657M7034 432l1434 5595M6954 397l1542 5531M6873 364l1647 5465M6792 332l1751 5397M6710 302l1852 5326M6628 272l1950 5255M6545 245l2047 5180M6462 218l2140 5105M6378 194l2232 5027M6294 170l2321 4948M6210 149l2407 4867M6125 128l2491 4785M6040 109l2572 4702M5954 92l2651 4616M5868 76l2727 4530M5782 62l2801 4442M5696 49l2871 4354M5609 37l2940 4265M5523 27l3005 4175M5436 19l3068 4083M5349 12l3128 3991M5262 7l3185 3898M5174 3l3241 3805M5087 1l3292 3710M5000 0l3341 3616M4913 1l3388 3521M4826 3l3432 3426M4738 7l3474 3330M4651 12l3512 3235M4564 19l3548 3139M4477 27l3582 3043M4391 37l3612 2947M4304 49l3640 2851M4218 62l3666 2755M4132 76l3689 2660M4046 92l3709 2565M3960 109l3728 2471M3875 128l3743 2377M3790 149l3756 2282M3706 170l3766 2190M3622 194l3775 2097M3538 218l3781 2006M3455 245l3784 1915M3372 272l3786 1825M3290 302l3784 1735M3208 332l3782 1648M3127 364l3776 1560M3046 397l3769 1475M2966 432l3760 1390M2887 468l3748 1306M2808 506l3735 1223M2730 545l3719 1141M2653 585l3702 1062M2576 627l3683 983M2500 670l3663 905M2425 714l3640 830M2350 760l3617 755M2277 807l3590 682M2204 855l3563 611M2132 904l3535 541M2061 955l3505 473m-3575-421l3473 406m-3542-353l3440 341m-3509-287l3407 279m-3474-223l3372 217m-3438-161l3335 158m-3401-100l3299 100m-3363-41l3260 43m-3323 17l3221-11m-3284 72l3181-63m-3242 126l3141-115m-3201 178l3099-163m-3158 227l3057-210m-3115 276l3014-256m-3070 322l2970-299m-3026 366l2927-340m-2981 409l2883-381m-2936 450l2838-418M955 2061l2793-454M904 2132l2748-488M855 2204l2703-521M807 2277l2657-552M760 2350l2612-580M714 2425l2567-607M670 2500l2522-632M627 2576l2477-656M585 2653l2432-678M545 2730l2387-697M506 2808l2343-715M468 2887l2299-732M432 2966l2255-747M397 3046l2212-760M364 3127l2169-772M332 3208l2127-782M302 3290l2085-791M272 3372l2046-798M245 3455l2005-804M218 3538l1966-808M194 3622l1927-811M170 3706l1890-813M149 3790l1853-812M128 3875l1817-812M109 3960l1783-809M92 4046l1749-806M76 4132l1716-802M62 4218l1684-796M49 4304l1653-789M37 4391l1625-782M27 4477l1596-773M19 4564l1569-764M12 4651l1543-754M7 4738l1519-742M3 4826l1495-732M1 4913l1473-719M0 5000l1453-706M1 5087l1433-692M3 5174l1415-677M7 5262l1399-664M12 5349l1384-648M19 5436l1370-633M27 5523l1357-618M37 5609l1346-601M49 5696l1336-586M62 5782l1328-569M76 5868l1321-553M92 5954l1315-537M109 6040l1312-521M128 6125l1309-505M149 6210l1307-489M170 6294l1308-473M194 6378l1308-457M218 6462l1312-442M245 6545l1315-427M272 6628l1321-413M302 6710l1327-399M332 6792l1336-386M364 6873l1345-373M397 6954l1356-361M432 7034l1367-350M468 7113l1380-339M506 7192l1394-329M545 7270l1409-320M585 7347l1425-311M627 7424l1442-305M670 7500l1461-298M714 7575l1480-293M760 7650l1500-289M807 7723l1521-285M855 7796l1543-284M904 7868l1567-283M955 7939l1590-283m-1538 353l1614-285m-1561 354l1639-287m-1585 356l1666-292m-1610 359l1691-297m-1635 363l1719-304m-1661 370l1746-313m-1687 377l1774-322m-1714 385l1802-333m-1741 396l1831-346m-1768 407l1859-360m-1796 420l1889-376m-1825 435l1918-393m-1852 451l1947-412m-1881 468l1977-431m-1910 487l2007-454m-1938 508l2036-477m-1967 530l2065-502m-1995 554l2095-528m-2024 579l2124-557m-2052 606l2152-586m-2079 634l2181-617m-2108 664l2209-650m-2134 696l2236-685m-2161 729l2263-721m-2187 764l2290-759m-2213 801l2315-798m-2238 838l2341-839m-2263 878l2366-881m-2287 919l2389-926m-2310 962l2412-971M3046 9603l2434-1018M3127 9636l2454-1066M3208 9668l2474-1116M3290 9698l2493-1167M3372 9728l2511-1221M3455 9755l2527-1274M3538 9782l2542-1330M3622 9806l2555-1386M3706 9830l2568-1445M3790 9851l2579-1504M3875 9872l2589-1565M3960 9891l2597-1627M4046 9908l2603-1689M4132 9924l2608-1753M4218 9938l2611-1818M4304 9951l2613-1884M4391 9963l2612-1951M4477 9973l2610-2019M4564 9981l2606-2088M4651 9988l2600-2158M4738 9993l2593-2227M4826 9997l2582-2299M4913 9999l2571-2370m-2484 2371l2557-2443M5087 9999l2542-2515M5174 9997l2524-2589M5262 9993l2504-2662M5349 9988l2481-2737M5436 9981l2457-2811M5523 9973l2431-2886M5609 9963l2403-2960M5696 9951l2371-3034M5782 9938l2338-3109M5868 9924l2303-3184M5954 9908l2265-3259M6040 9891l2224-3334M6125 9872l2182-3408M6210 9851l2137-3482M6294 9830l2091-3556M6378 9806l2042-3629M6462 9782l1990-3702M6545 9755l1936-3773M6628 9728l1879-3845M6710 9698l1821-3915M6792 9668l1760-3986M6873 9636l1697-4055M6954 9603l1631-4123M7034 9568l1563-4190M7113 9532l1493-4256M7192 9494l1421-4320M7270 9455l1346-4384M7347 9415l1270-4447M7424 9373l1190-4507M7500 9330l1109-4567M7575 9286l1026-4625m-951 4579l940-4681m-867 4634l853-4735m-780 4687l763-4789m-691 4740l671-4840m-600 4789l578-4889m-508 4837l482-4937m-413 4884l385-4982m-316 4928l285-5026m-218 4970l185-5067m-119 5011l82-5107m-16 5049l-23-5144m87 5085l-129-5178m192 5118l-236-5211m299 5150l-346-5241m407 5178l-457-5268m517 5205l-569-5293m628 5229l-683-5316m741 5250l-798-5335m854 5269l-913-5353m969 5286L7855 2780m1085 5298L7791 2699m1202 5310L7724 2621m1321 5318L7656 2545m1440 5323L7585 2471m1560 5325L7512 2398m1681 5325L7438 2328m1802 5322L7361 2260m1925 5315L7282 2194m2048 5306L7202 2131m2171 5293L7119 2069m2296 5278L7036 2010m2419 5260L6950 1954m2544 5238L6863 1900m2669 5213L6774 1848m2794 5186L6684 1799m2919 5155L6593 1753m3043 5120L6500 1709m3168 5083L6406 1668m3292 5042L6311 1629m3417 4999L6215 1593m3540 4952L6118 1560m3664 4902L6020 1530m3786 4848L5921 1502m3909 4792L5821 1478m4030 4732L5721 1456m4151 4669L5620 1437m4271 4603L5519 1421m4389 4533L5417 1407m4507 4461L5315 1397m4623 4385L5213 1390m4738 4306L5110 1385m4853 4224L5008 1383m4965 4140L4905 1384m5076 4052L4803 1389m5185 3960L4701 1396m5292 3866L4598 1406m5399 3768L4497 1418m5502 3669L4395 1434m5605 3566L4294 1453m5705 3460L4194 1474m5803 3352L4094 1498m5899 3240L3996 1526m5992 3125L3897 1555m6084 3009L3800 1588m6173 2889L3704 1623m6259 2768L3609 1662m6342 2642L3515 1702m6423 2516L3422 1746m6502 2386L3330 1792m6578 2254L3240 1841m6651 2119L3151 1892m6721 1983L3063 1945m6788 1845L2978 2002m6852 1704L2893 2060m6913 1562L2811 2121m6971 1417L2730 2184m7025 1271L2651 2250m7077 1122L2574 2318m7124 972l-7199-903m7169 821l-7242-749m7210 668l-7281-594m7248 513l-7317-437m7282 357l-7349-279m7313 200l-7377-120m7339 41l-7401 41m7362-119l-7422 202m7382-279l-7440 364m7398-441l-7453 528m7410-604l-7462 692m7418-767l-7468 856m7422-931L1770 3372m7423-1095L1725 3464m7420-1260L1683 3558m7413-1426L1644 3652m7401-1591L1607 3748m7386-1757L1573 3845m7367-1923L1541 3943m7345-2090L1513 4041m7317-2255L1487 4140m7287-2420L1464 4240m7252-2586L1444 4341m7213-2751L1427 4442m7170-2915L1412 4544m7124-3080L1401 4645m7072-3242L1392 4748m7018-3405L1386 4850m6960-3566L1384 4953m6896-3727L1384 5055m6830-3885L1387 5158m6760-4044L1393 5260m6685-4200L1401 5362m6608-4355L1413 5464M7939 955L1428 5566M7868 904L1445 5667M7796 855L1466 5767M7723 807L1489 5867M7650 760L1515 5967M7575 714L1544 6065M7500 670L1575 6163M7424 627L1610 6259M7347 585L1647 6355M7270 545L1686 6449M7192 506L1729 6543M7113 468L1774 6635M7034 432L1822 6726M6954 397L1872 6815M6873 364L1924 6903M6792 332L1980 6990M6710 302L2037 7074M6628 272L2097 7158M6545 245L2160 7239M6462 218L2224 7319M6378 194L2291 7397M6294 170L2360 7472M6210 149L2431 7546M6125 128L2505 7618M6040 109L2580 7688M5954 92L2657 7755M5868 76L2736 7821M5782 62L2817 7884M5696 49L2900 7944M5609 37L2984 8003M5523 27L3070 8059M5436 19L3158 8112M5349 12L3247 8163M5262 7L3337 8212M5174 3L3429 8258M5087 1L3522 8301M5000 0L3616 8341M4913 1L3711 8379M4826 3L3808 8415M4738 7l-833 8440M4651 12l-648 8465M4564 19l-462 8485M4477 27l-275 8501M4391 37l-89 8512m2-8500l99 8518M4218 62l286 8521M4132 76l474 8519M4046 92l662 8513M3960 109l851 8503M3875 128l1038 8488M3790 149l1226 8468M3706 170l1412 8445M3622 194l1599 8416M3538 218l1785 8384M3455 245l1970 8347M3372 272l2155 8306M3290 302l2338 8260M3208 332l2521 8211M3127 364l2702 8156M3046 397l2882 8099M2966 432l3061 8036M2887 468l3238 7969M2808 506l3414 7898M2730 545l3588 7823M2653 585l3760 7744M2576 627l3931 7661M2500 670l4100 7574M2425 714l4266 7483M2350 760l4431 7388M2277 807l4593 7289M2204 855l4753 7187M2132 904l4910 7081M2061 955l5065 6971M1991 1007l5217 6858M1922 1060l5366 6741M1853 1114l5514 6621M1786 1170l5657 6497M1720 1226l5798 6370M1654 1284l5937 6240M1590 1343l6071 6106M1527 1403l6203 5970M1464 1464l6332 5830M1403 1527l6457 5687M1343 1590l6578 5542M1284 1654l6697 5395M1226 1720l6812 5243M1170 1786l6922 5090M1114 1853l7030 4935M1060 1922l7133 4776M1007 1991l7233 4616M955 2061l7330 4453M904 2132l7422 4288M855 2204l7510 4122M807 2277l7594 3953M760 2350l7675 3783M714 2425l7752 3610M670 2500l7824 3436M627 2576l7892 3261M585 2653l7956 3084M545 2730l8015 2906M506 2808l8071 2727M468 2887l8123 2546M432 2966l8170 2365M397 3046l8213 2183M364 3127l8251 1999M332 3208l8285 1816M302 3290l8314 1631M272 3372l8340 1447M245 3455l8361 1261M218 3538l8378 1076M194 3622l8390 890M170 3706l8398 705M149 3790l8401 520M128 3875l8401 334M109 3960l8396 150M92 4046l8387-35M76 4132l8373-220M62 4218l8355-403M49 4304l8333-585M37 4391l8307-768M27 4477l8277-948M19 4564l8242-1128M12 4651l8203-1307M7 4738l8160-1485M3 4826l8113-1662M1 4913l8062-1836M0 5000l8007-2009M1 5087l7948-2181M3 5174l7885-2351M7 5262l7819-2520M12 5349l7748-2686M19 5436l7674-2850M27 5523l7596-3013M37 5609l7515-3172M49 5696l7429-3330M62 5782l7340-3486M76 5868l7249-3639M92 5954l7153-3789M109 6040l7055-3938M128 6125l6953-4083M149 6210l6847-4226M170 6294l6740-4365M194 6378l6628-4502M218 6462l6515-4637M245 6545l6397-4768M272 6628l6278-4896M302 6710l6155-5020M332 6792l6030-5142M364 6873l5903-5261M397 6954l5773-5376M432 7034l5641-5488M468 7113l5506-5596M506 7192l5369-5701M545 7270l5230-5803M585 7347l5090-5900M627 7424l4947-5995M670 7500l4802-6086M714 7575l4656-6173M760 7650l4508-6257M807 7723l4359-6336M855 7796l4208-6412M904 7868l4057-6485M955 7939l3903-6553M1007 8009l3749-6617M1060 8078l3593-6678M1114 8147l3437-6736M1170 8214l3280-6789M1226 8280l3123-6838M1284 8346l2964-6884M1343 8410l2805-6925M1403 8473l2646-6962M1464 8536l2486-6997M1527 8597l2325-7027M1590 8657l2166-7053M1654 8716l2006-7075M1720 8774l1845-7094M1786 8830l1685-7108M1853 8886l1526-7119M1922 8940l1366-7126M1991 8993l1207-7129M2061 9045l1049-7129m-978 7180l892-7125m-820 7174l734-7117m-661 7165l578-7105m-505 7152l423-7090m-348 7136l268-7072m-193 7116l115-7049m-39 7092l-37-7023m114 7065l-188-6995m265 7035l-337-6962m415 7001l-485-6926m564 6964l-632-6887m711 6923l-777-6844m857 6879l-920-6798m1001 6831L2065 2887m1143 6781L2006 2971m1284 6727L1950 3057m1422 6671L1896 3144m1559 6611L1844 3233m1694 6549L1796 3323m1826 6483L1749 3415m1957 6415L1706 3507m2084 6344L1665 3601m2210 6271L1626 3697m2334 6194L1591 3793m2455 6115L1558 3890m2574 6034L1528 3988m2690 5950L1500 4087m2804 5864L1476 4186m2915 5777L1454 4287m3023 5686L1435 4388m3129 5593L1420 4489m3231 5499L1406 4591m3332 5402L1396 4693m3430 5304L1389 4795m3524 5204L1385 4897m3615 5103L1383 5000m3704 4999L1385 5103m3789 4894L1389 5205m3873 4788L1396 5307m3953 4681L1406 5409m4030 4572L1420 5511m4103 4462L1435 5612m4174 4351L1454 5713m4242 4238L1476 5814m4306 4124L1500 5913m4368 4011L1528 6012m4426 3896L1558 6110m4482 3781L1591 6207m4534 3665L1626 6303m4584 3548L1665 6399m4629 3431L1706 6493m4672 3313L1749 6585m4713 3197L1796 6677m4749 3078L1844 6767m4784 2961L1896 6856m4814 2842L1950 6943m4842 2725L2006 7029m4867 2607L2065 7113m4889 2490L2126 7195m4908 2373L2189 7276m4924 2256L2255 7355m4937 2139L2323 7432m4947 2023L2393 7507m4954 1908L2465 7580m4959 1793L2539 7650m4961 1680L2615 7719m4960 1567L2693 7786m4957 1454L2773 7850m4950 1343L2855 7912m4941 1233L2938 7972m4930 1124L3024 8029m4915 1016l-4829-961m4899 909l-4811-857m4880 804l-4790-754m4859 700l-4768-653m4835 597l-4743-552m4809 496l-4715-454m4781 396l-4686-357m4750 298l-4654-261m4717 201l-4621-167m4684 106l-4586-75m4647 12l-4548 16m4608-79l-4509 105m4568-169l-4468 192m4526-258l-4425 278m4481-344l-4380 361m4436-428l-4335 442m4389-511l-4287 522m4340-591l-4237 599m4289-669l-4187 675m4238-746l-4135 749m4184-821l-4082 820m4130-893l-4027 890m4074-963l-3972 957m4018-1032L5370 8598m3960-1098L5472 8586m3901-1162L5574 8571m3841-1224L5675 8553m3780-1283L5775 8533m3719-1341L5875 8509m3657-1396L5974 8483m3594-1449L6073 8454m3530-1500L6170 8422m3466-1549L6267 8388m3401-1596L6362 8350m3336-1640L6457 8310m3271-1682L6550 8268m3205-1723L6642 8223m3140-1761L6733 8175m3073-1797L6822 8124m3008-1830L6910 8071m2941-1861L6996 8016m2876-1891L7081 7958m2810-1918L7164 7898m2744-1944L7245 7835m2679-1967L7325 7771m2613-1989L7402 7704m2549-2008L7478 7634m2485-2025L7552 7563m2421-2040L7623 7490m2358-2054L7693 7414m2295-2065L7760 7337m2233-2075L7826 7258m2171-2084L7888 7177m2111-2090L7949 7094m2051-2094L8007 7009m1992-2096L8063 6923m1934-2097L8116 6836m1877-2098L8167 6747m1821-2096L8215 6656m1766-2092L8261 6564m1712-2087L8304 6471m1659-2080L8344 6377m1607-2073L8382 6281m1556-2063L8417 6185m1507-2053L8449 6088m1459-2042L8479 5989m1412-2029L8505 5890m1367-2015L8529 5791m1322-2001L8550 5690m1280-1984L8568 5589m1238-1967L8584 5488m1198-1950L8596 5386m1159-1931L8606 5284m1122-1912L8612 5181m1086-1891L8616 5079m1052-1871L8617 4976m1019-1849L8615 4874m988-1828l-993 1725m958-1805l-966 1703m930-1782l-941 1680m903-1759l-917 1657m878-1735l-895 1634m855-1711l-874 1610m832-1687l-854 1587m811-1663l-836 1564m792-1639l-820 1540m774-1615l-805 1517m758-1590l-792 1493m744-1566l-780 1470m731-1542l-770 1448m719-1519l-760 1425m708-1495l-753 1402m700-1471l-747 1380m693-1449l-742 1359m686-1426l-738 1338m682-1404l-736 1317m678-1383l-735 1297m676-1361l-736 1278m676-1341l-737 1259m676-1322l-740 1242m677-1303l-743 1224m680-1284l-749 1208m685-1267l-755 1192m689-1250l-762 1178m696-1234l-771 1163m704-1219l-780 1151m711-1205l-790 1139m721-1192l-801 1128m731-1180l-813 1119m742-1170l-826 1111m754-1160l-839 1103m766-1151l-853 1097m780-1144l-869 1092m794-1138l-884 1089m809-1133l-900 1086m824-1129l-917 1085m840-1127l-934 1086m857-1126l-952 1087m874-1126l-970 1090m891-1128l-988 1095m909-1131L6027 1532m927-1135L5928 1504m945-1140L5829 1480m963-1148L5729 1457m981-1155L5628 1438M6628 272L5527 1422M6545 245L5425 1408M6462 218L5323 1398M6378 194L5221 1390M6294 170L5118 1385M6210 149L5016 1383M6125 128L4913 1384M6040 109L4811 1388M5954 92L4708 1395M5868 76L4606 1405M5782 62L4504 1417M5696 49L4403 1433M5609 37L4302 1451M5523 27L4202 1472M5436 19L4102 1496M5349 12L4003 1523M5262 7L3905 1553M5174 3L3808 1585M5087 1L3711 1621M5000 0L3616 1659M4913 1L3522 1699M4826 3L3429 1742M4738 7L3337 1788M4651 12L3247 1837M4564 19L3158 1888M4477 27L3070 1941M4391 37L2984 1997M4304 49L2900 2056M4218 62L2817 2116M4132 76L2736 2179M4046 92L2657 2245M3960 109L2580 2312M3875 128L2505 2382M3790 149L2431 2454M3706 170L2360 2528M3622 194L2291 2603M3538 218L2224 2681M3455 245L2160 2761M3372 272L2097 2842M3290 302L2037 2926M3208 332L1980 3010M3127 364L1924 3097M3046 397L1872 3185M2966 432L1822 3274M2887 468L1774 3365M2808 506L1729 3457M2730 545L1686 3551m967-2966L1647 3645m929-3018l-966 3114m890-3071l-925 3167m850-3123l-881 3221m806-3175l-835 3273m762-3226l-788 3326m715-3278l-738 3378m666-3329l-687 3429m616-3378l-633 3479m563-3427l-578 3529m509-3476l-521 3578m452-3524l-460 3626m393-3570l-399 3672m333-3616l-336 3719m270-3661l-270 3763m206-3704l-204 3807m141-3747l-135 3849m72-3788l-63 3891m2-3828l9 3929m-69-3866l84 3968m-143-3904l160 4005m-218-3939l238 4040m-294-3974l317 4074m-373-4007l399 4106m-453-4037l481 4135m-534-4066l566 4164M955 2061l652 4191M904 2132l740 4216M855 2204l828 4238M807 2277l918 4259M760 2350l1010 4278M714 2425l1104 4294M670 2500l1198 4308M627 2576l1293 4320M585 2653l1390 4330M545 2730l1488 4338M506 2808l1587 4343M468 2887l1687 4346M432 2966l1787 4347M397 3046l1889 4345M364 3127l1991 4340M332 3208l2094 4333M302 3290l2197 4323M272 3372l2302 4310M245 3455l2406 4295M218 3538l2512 4278M194 3622l2617 4257M170 3706l2723 4234M149 3790l2829 4208M128 3875l2935 4180M109 3960l3042 4148M92 4046l3148 4113M76 4132l3254 4076M62 4218l3360 4036M49 4304l3466 3994M37 4391l3572 3947M27 4477l3677 3900M19 4564l3781 3848M12 4651l3885 3794M7 4738l3989 3736M3 4826l4091 3676M1 4913l4193 3613M0 5000l4294 3547M1 5087l4394 3479M3 5174l4494 3408M7 5262l4591 3332M12 5349l4689 3255M19 5436l4784 3175M27 5523l4878 3093M37 5609l4971 3008M49 5696l5061 2919M62 5782l5151 2828M76 5868l5239 2735M92 5954l5325 2639M109 6040l5410 2539M128 6125l5492 2438M149 6210l5572 2334M170 6294l5651 2228M194 6378l5727 2120M218 6462l5802 2008M245 6545l5873 1895M272 6628l5943 1779M302 6710l6009 1661M332 6792l6074 1540M364 6873l6136 1418M397 6954l6196 1293M432 7034l6252 1167M468 7113l6306 1039M506 7192l6357 908M545 7270l6405 776M585 7347l6451 643M627 7424l6492 507M670 7500l6532 369M714 7575l6568 231M760 7650l6601 90m-6554-17l6631-51M855 7796l6657-194M904 7868l6681-339M955 7939l6701-484m-6649 554l6717-630m-6664 699l6731-777m-6677 846l6741-927m-6685 994l6747-1075M1226 8280l6750-1225M1284 8346l6749-1376M1343 8410l6745-1527M1403 8473l6737-1678M1464 8536l6726-1831M1527 8597l6710-1983M1590 8657l6691-2136M1654 8716l6669-2288M1720 8774l6642-2441M1786 8830l6613-2593M1853 8886l6579-2746M1922 8940l6541-2898M1991 8993l6500-3049M2061 9045l6456-3201M2132 9096l6407-3352M2204 9145l6355-3501M2277 9193l6299-3651M2350 9240l6240-3799M2425 9286l6176-3947M2500 9330l6109-4093M2576 9373l6038-4239M2653 9415l5964-4383M2730 9455l5886-4526M2808 9494l5805-4668M2887 9532l5719-4808M2966 9568l5631-4946M3046 9603l5539-5083M3127 9636l5443-5217M3208 9668l5344-5350M3290 9698l5241-5481M3372 9728l5135-5611M3455 9755l5026-5737M3538 9782l4914-5862M3622 9806l4798-5983M3706 9830l4679-6104M3790 9851l4557-6220M3875 9872l4432-6336M3960 9891l4304-6448M4046 9908l4173-6557M4132 9924l4039-6664M4218 9938l3902-6767M4304 9951l3763-6868M4391 9963l3621-6966M4477 9973l3477-7060M4564 9981l3329-7151M4651 9988l3179-7239M4738 9993l3028-7324M4826 9997l2872-7405M4913 9999l2716-7483m-2629 7484l2557-7557M5087 9999l2397-7628M5174 9997l2234-7695M5262 9993l2069-7759M5349 9988l1902-7818M5436 9981l1734-7874M5523 9973l1564-7927M5609 9963l1394-7975M5696 9951l1221-8018M5782 9938l1047-8058m-961 8044l872-8095m-786 8079l695-8127m-609 8110l517-8155m-432 8136l339-8179m-254 8158l159-8198m-75 8177l-20-8215m104 8191l-201-8226m285 8202l-382-8234m465 8207l-563-8236m646 8209l-745-8235m827 8205l-927-8229m1009 8199L5682 1448m1191 8188L5581 1430m1373 8173L5480 1415m1554 8153L5378 1403m1735 8129L5276 1394m1916 8100L5174 1387m2096 8068L5071 1384m2276 8031L4968 1383m2456 7990L4866 1386m2634 7944L4763 1391m2812 7895L4661 1399m2989 7841L4559 1410m3164 7783L4458 1424m3338 7721L4356 1441m3512 7655L4256 1461m3683 7584L4156 1483m3853 7510L4056 1509m4022 7431L3958 1537m4189 7349L3860 1568m4354 7262L3763 1601m4517 7173L3667 1638m4679 7078L3572 1677m4838 6980L3479 1719m4994 6878L3386 1763m5150 6773L3295 1810m5302 6663L3205 1860m5452 6550L3117 1912m5599 6434L3030 1967m5744 6313L2945 2024m5885 6190L2861 2083m6025 6064L2780 2145m6160 5933L2699 2209m6294 5800L2621 2276m6424 5663L2545 2344m6551 5524L2471 2415m6674 5381L2398 2488m6795 5235L2328 2562m6912 5088L2260 2639m7026 4936L2194 2718m7136 4782L2131 2798m7242 4626L2069 2881m7346 4466L2010 2964m7445 4306L1954 3050m7540 4142L1900 3137m7632 3976L1848 3226m7720 3808L1799 3316m7804 3638L1753 3407m7883 3466L1709 3500m7959 3292L1668 3594m8030 3116L1629 3689m8099 2939L1593 3785m8162 2760L1560 3882m8222 2580L1530 3980m8276 2398L1502 4079m8328 2215L1478 4179m8373 2031L1456 4279m8416 1846L1437 4380m8454 1660L1421 4481m8487 1473L1407 4583m8517 1285L1397 4685m8541 1097l-8548-995m8561 909l-8566-806m8578 719l-8580-617m8590 531l-8589-428m8597 341l-8592-239m8599 152l-8592-50m8597-37l-8587 140m8591-228l-8579 329m8581-416l-8565 518m8566-605l-8547 706m8546-793l-8525 893m8523-980L1498 5906m8495-1168L1526 6004m8462-1353L1555 6103m8426-1539L1588 6200m8385-1723L1623 6296m8340-1905L1662 6391m8289-2087L1702 6485m8236-2267L1746 6578m8178-2446L1792 6670m8116-2624L1841 6760m8050-2800L1892 6849m7980-2974L1945 6937m7906-3147L2002 7022m7828-3316L2060 7107m7746-3485L2121 7189m7661-3651L2184 7270m7571-3815L2250 7349m7478-3977L2318 7426m7380-4136L2387 7501m7281-4293L2459 7574m7177-4447L2533 7645m7070-4599L2609 7714m6959-4748L2687 7781m6845-4894L2767 7845m6727-5037L2849 7907m6606-5177L2932 7967m6483-5314L3017 8025m6356-5449L3104 8080m6226-5580L3192 8132m6094-5707L3281 8182m5959-5832L3372 8230m5821-5953L3464 8275m5681-6071L3558 8317m5538-6185L3652 8356m5393-6295L3748 8393m5245-6402L3845 8427m5095-6505L3943 8459m4943-6606L4041 8487m4789-6701L4140 8513m4634-6793L4240 8536m4476-6882L4341 8556m4316-6966L4442 8573m4155-7046L4544 8588m3992-7124L4645 8599m3828-7196L4748 8608m3662-7265L4850 8614m3496-7330L4953 8616m3327-7390L5055 8616m3159-7446L5158 8613m2989-7499L5260 8607m2818-7547L5362 8599m2647-7592L5464 8587M7939 955L5566 8572M7868 904L5667 8555M7796 855L5767 8534M7723 807L5867 8511M7650 760L5967 8485M7575 714L6065 8456M7500 670L6163 8425M7424 627L6259 8390M7347 585l-992 7768m915-7808l-821 7769m743-7808l-649 7765m570-7803l-478 7758m399-7794l-308 7746m228-7781l-139 7731m58-7764l30 7712M6792 332l198 7688M6710 302l364 7661M6628 272l530 7631M6545 245l694 7595M6462 218l857 7558M6378 194l1019 7515M6294 170l1178 7470M6210 149l1336 7420M6125 128l1493 7367M6040 109l1648 7311M5954 92l1801 7251M5868 76l1953 7188M5782 62l2102 7121M5696 49l2248 7051M5609 37l2394 6979M5523 27l2536 6903M5436 19l2676 6823M5349 12l2814 6741M5262 7l2950 6656M5174 3l3084 6568M5087 1l3214 6477M5000 0l3341 6384M4913 1l3466 6288M4826 3l3589 6189M4738 7l3709 6088M4651 12l3826 5985M4564 19l3940 5879M4477 27l4051 5771M4391 37l4158 5661M4304 49l4263 5548M4218 62l4365 5434M4132 76l4463 5318M4046 92l4559 5200M3960 109l4652 5080M3875 128l4741 4959M3790 149l4827 4835M3706 170l4909 4712M3622 194l4988 4585M3538 218l5064 4459M3455 245l5137 4330M3372 272l5206 4201M3290 302l5272 4070M3208 332l5335 3939M3127 364l5393 3807M3046 397l5450 3675M2966 432l5502 3541M2887 468l5550 3407M2808 506l5596 3272M2730 545l5638 3137M2653 585l5676 3002M2576 627l5712 2866M2500 670l5744 2730M2425 714l5772 2595M2350 760l5798 2459M2277 807l5819 2323M2204 855l5838 2188M2132 904l5853 2054M2061 955l5865 1919M1991 1007l5874 1785M1922 1060l5879 1652M1853 1114l5882 1519M1786 1170l5881 1387M1720 1226l5876 1256M1654 1284l5870 1125M1590 1343l5859 996m-5922-936l5846 867m-5909-806l5830 740m-5891-677l5811 613m-5871-550l5789 489m-5848-425l5765 365m-5823-299l5737 242m-5793-176l5706 122m-5762-55l5674 3m-5728 66l5638-115m-5691 184l5600-231M955 2061l5559-346M904 2132l5516-458M855 2204l5471-569M807 2277l5423-678M760 2350l5373-785M714 2425l5321-891M670 2500l5266-994M627 2576l5210-1095M585 2653l5152-1194M545 2730l5091-1290M506 2808l5029-1385M468 2887l4965-1478M432 2966l4899-1568M397 3046l4832-1656M364 3127l4762-1742M332 3208l4692-1825M302 3290l4619-1906M272 3372l4547-1984M245 3455l4471-2061M218 3538l4396-2134M194 3622l4318-2206M170 3706l4241-2274M149 3790l4161-2340M128 3875l4081-2404M109 3960l4001-2465M92 4046l3919-2525M76 4132l3836-2581M62 4218l3753-2635M49 4304l3670-2686M37 4391l3586-2735M27 4477l3502-2781M19 4564l3417-2825M12 4651l3332-2866M7 4738l3246-2905M3 4826l3161-2942M1 4913l3076-2976M0 5000l2991-3007M1 5087l2905-3036M3 5174l2820-3062M7 5262l2735-3088M12 5349l2651-3109M19 5436l2567-3129M27 5523l2483-3146M37 5609l2400-3161M49 5696l2317-3174M62 5782l2234-3184M76 5868l2153-3193M92 5954l2073-3199M109 6040l1993-3204M128 6125l1914-3206M149 6210l1835-3206M170 6294l1759-3204M194 6378l1682-3200M218 6462l1607-3195M245 6545l1532-3187M272 6628l1460-3178M302 6710l1388-3167M332 6792l1318-3154M364 6873l1248-3140M397 6954l1181-3124M432 7034l1114-3107M468 7113l1049-3087M506 7192l985-3067M545 7270l922-3045M585 7347l862-3022M627 7424l802-2998M670 7500l744-2972M714 7575l688-2945M760 7650l633-2918M807 7723l580-2889M855 7796l529-2859M904 7868l479-2829M955 7939l431-2797m-379 2867l385-2765m-332 2834l340-2731m-286 2800l297-2698m-241 2765l255-2664m-199 2730l216-2629m-158 2695l178-2594m-119 2658l142-2558m-82 2621l108-2522m-47 2585l75-2486m-12 2547l43-2449m20 2509l14-2413m50 2472l-13-2376m79 2434l-40-2339m106 2395l-64-2301m131 2357l-86-2265m155 2319l-108-2228m177 2281l-127-2191m197 2243l-145-2155m216 2206l-161-2120m233 2169l-176-2083m249 2131l-189-2048m262 2095l-200-2013m275 2059l-211-1979m286 2023l-219-1945m295 1988l-226-1912m303 1954l-233-1880m310 1920l-237-1848m315 1887l-240-1817m319 1855l-242-1787m321 1823l-242-1757m322 1792l-241-1729m322 1762l-240-1701m321 1733l-237-1674m319 1704l-233-1648m315 1678l-228-1624m311 1651l-222-1599m305 1626l-215-1578m299 1602l-207-1555m291 1579l-199-1536m283 1557l-189-1516m274 1537l-178-1498m263 1517l-167-1482m253 1499l-156-1466m242 1482l-144-1452m230 1466l-131-1438m217 1451l-118-1427m205 1439l-104-1417m190 1427l-89-1408m176 1416l-75-1401m162 1408l-60-1394m147 1399l-45-1389m133 1393l-31-1386m118 1388l-16-1384" fill="none" stroke="#000"/></svg>
