<svg viewBox="-172.46 -172.46 344.92 344.92" xmlns="http://www.w3.org/2000/svg"><g stroke="#000"><path d="M163.92 0a60 60 0 0 0-21.96-81.96 60 60 0 0 0-60-60A60 60 0 0 0 0-163.92a60 60 0 0 0-81.96 21.96 60 60 0 0 0-60 60A60 60 0 0 0-163.92 0a60 60 0 0 0 21.96 81.96 60 60 0 0 0 60 60A60 60 0 0 0 0 163.92a60 60 0 0 0 81.96-21.96 60 60 0 0 0 60-60A60 60 0 0 0 163.92 0z" fill="#fe7f26"/><path d="M148.77-39.86a60 60 0 0 0-39.86-69.05 60 60 0 0 0-69.05-39.86 60 60 0 0 0-79.72 0 60 60 0 0 0-69.05 39.86 60 60 0 0 0-39.86 69.05 60 60 0 0 0 0 79.72 60 60 0 0 0 39.86 69.05 60 60 0 0 0 69.05 39.86 60 60 0 0 0 79.72 0 60 60 0 0 0 69.05-39.86 60 60 0 0 0 39.86-69.05 60 60 0 0 0 0-79.72z" fill="#01a8f3"/><path d="M163.92 0a60 60 0 0 0-51.96-30 60 60 0 0 0 30-51.96 60 60 0 0 0-60 0 60 60 0 0 0 0-60 60 60 0 0 0-51.96 30 60 60 0 0 0-30-51.96 60 60 0 0 0-30 51.96 60 60 0 0 0-51.96-30 60 60 0 0 0 0 60 60 60 0 0 0-60 0 60 60 0 0 0 30 51.96 60 60 0 0 0-51.96 30 60 60 0 0 0 51.96 30 60 60 0 0 0-30 51.96 60 60 0 0 0 60 0 60 60 0 0 0 0 60 60 60 0 0 0 51.96-30 60 60 0 0 0 30 51.96 60 60 0 0 0 30-51.96 60 60 0 0 0 51.96 30 60 60 0 0 0 0-60 60 60 0 0 0 60 0 60 60 0 0 0-30-51.96 60 60 0 0 0 51.96-30z" fill="#eb1c24"/><path d="M137.8 0a60 60 0 0 0-18.46-68.9 60 60 0 0 0-50.44-50.44A60 60 0 0 0 0-137.8a60 60 0 0 0-68.9 18.46 60 60 0 0 0-50.44 50.44A60 60 0 0 0-137.8 0a60 60 0 0 0 18.46 68.9 60 60 0 0 0 50.44 50.44A60 60 0 0 0 0 137.8a60 60 0 0 0 68.9-18.46 60 60 0 0 0 50.44-50.44A60 60 0 0 0 137.8 0z" fill="#b83dba"/><path d="M120 0a60 60 0 0 0 28.77-39.86A60 60 0 0 0 103.92-60a60 60 0 0 0 4.99-48.91A60 60 0 0 0 60-103.92a60 60 0 0 0-20.14-44.85A60 60 0 0 0 0-120a60 60 0 0 0-39.86-28.77A60 60 0 0 0-60-103.92a60 60 0 0 0-48.91-4.99A60 60 0 0 0-103.92-60a60 60 0 0 0-44.85 20.14A60 60 0 0 0-120 0a60 60 0 0 0-28.77 39.86A60 60 0 0 0-103.92 60a60 60 0 0 0-4.99 48.91A60 60 0 0 0-60 103.92a60 60 0 0 0 20.14 44.85A60 60 0 0 0 0 120a60 60 0 0 0 39.86 28.7A60 60 0 0 0 60 103.92a60 60 0 0 0 48.91 4.99A60 60 0 0 0 103.92 60a60 60 0 0 0 44.85-20.14A60 60 0 0 0 120 0z" fill="#fdf201"/><path d="M137.8 0a60 60 0 0 0-25.84-30 60 60 0 0 0 7.38-38.9 60 60 0 0 0-37.38-13.06 60 60 0 0 0-13.06-37.38 60 60 0 0 0-38.9 7.38A60 60 0 0 0 0-137.8a60 60 0 0 0-30 25.84 60 60 0 0 0-38.9-7.38 60 60 0 0 0-13.06 37.38 60 60 0 0 0-37.38 13.06 60 60 0 0 0 7.38 38.9A60 60 0 0 0-137.8 0a60 60 0 0 0 25.84 30 60 60 0 0 0-7.38 38.9 60 60 0 0 0 37.38 13.06 60 60 0 0 0 13.06 37.38 60 60 0 0 0 38.9-7.38A60 60 0 0 0 0 137.8a60 60 0 0 0 30-25.84 60 60 0 0 0 38.9 7.38 60 60 0 0 0 13.06-37.38 60 60 0 0 0 37.38-13.06 60 60 0 0 0-7.38-38.9A60 60 0 0 0 137.8 0z" fill="#fe7f26"/><path d="M120 0a60 60 0 0 0 12.8-9.91A60 60 0 0 0 111.96-30a60 60 0 0 0 8-27.82A60 60 0 0 0 103.92-60a60 60 0 0 0 6.13-14.98 60 60 0 0 0-28.09-6.98 60 60 0 0 0-6.98-28.09A60 60 0 0 0 60-103.92a60 60 0 0 0-2.18-16.04 60 60 0 0 0-27.82 8A60 60 0 0 0 9.91-132.8 60 60 0 0 0 0-120a60 60 0 0 0-9.91-12.8A60 60 0 0 0-30-111.96a60 60 0 0 0-27.82-8A60 60 0 0 0-60-103.92a60 60 0 0 0-14.98-6.13 60 60 0 0 0-6.98 28.09 60 60 0 0 0-28.09 6.98A60 60 0 0 0-103.92-60a60 60 0 0 0-16.04 2.18 60 60 0 0 0 8 27.82A60 60 0 0 0-132.8-9.91 60 60 0 0 0-120 0a60 60 0 0 0-12.8 9.91A60 60 0 0 0-111.96 30a60 60 0 0 0-8 27.82A60 60 0 0 0-103.92 60a60 60 0 0 0-6.13 14.98 60 60 0 0 0 28.09 6.98 60 60 0 0 0 6.98 28.09A60 60 0 0 0-60 103.92a60 60 0 0 0 2.18 16.04 60 60 0 0 0 27.82-8A60 60 0 0 0-9.91 132.8 60 60 0 0 0 0 120a60 60 0 0 0 9.91 12.8A60 60 0 0 0 30 111.96a60 60 0 0 0 27.82 8A60 60 0 0 0 60 103.92a60 60 0 0 0 14.98 6.13 60 60 0 0 0 6.98-28.09 60 60 0 0 0 28.09-6.98A60 60 0 0 0 103.92 60a60 60 0 0 0 16.04-2.18 60 60 0 0 0-8-27.82A60 60 0 0 0 132.8 9.91 60 60 0 0 0 120 0z" fill="#01a8f3"/><path d="M111.96-30a60 60 0 0 0-30-51.96 60 60 0 0 0-51.96-30 60 60 0 0 0-60 0 60 60 0 0 0-51.96 30 60 60 0 0 0-30 51.96 60 60 0 0 0 0 60 60 60 0 0 0 30 51.96 60 60 0 0 0 51.96 30 60 60 0 0 0 60 0 60 60 0 0 0 51.96-30 60 60 0 0 0 30-51.96 60 60 0 0 0 0-60z" fill="#b83dba"/><path d="M103.92 0a60 60 0 0 0 8.04-30A60 60 0 0 0 90-51.96a60 60 0 0 0-8.04-30 60 60 0 0 0-30-8.04A60 60 0 0 0 30-111.96a60 60 0 0 0-30 8.04 60 60 0 0 0-30-8.04A60 60 0 0 0-51.96-90a60 60 0 0 0-30 8.04 60 60 0 0 0-8.04 30A60 60 0 0 0-111.96-30a60 60 0 0 0 8.04 30 60 60 0 0 0-8.04 30A60 60 0 0 0-90 51.96a60 60 0 0 0 8.04 30 60 60 0 0 0 30 8.04A60 60 0 0 0-30 111.96a60 60 0 0 0 30-8.04 60 60 0 0 0 30 8.04A60 60 0 0 0 51.96 90a60 60 0 0 0 30-8.04 60 60 0 0 0 8.04-30A60 60 0 0 0 111.96 30a60 60 0 0 0-8.04-30z" fill="#fdf201"/><path d="M120 0a60 60 0 0 0-21.1-7.37 60 60 0 0 0-16.94-14.59 60 60 0 0 0 51.96-30 60 60 0 0 1 8.04 30 60 60 0 0 0-60 0 60 60 0 0 0 7.38-21.1A60 60 0 0 0 103.92-60a60 60 0 0 0-21.96 4.16A60 60 0 0 0 60-60a60 60 0 0 0 30-51.96A60 60 0 0 1 111.96-90 60 60 0 0 0 60-60a60 60 0 0 0-4.16-21.96A60 60 0 0 0 60-103.92a60 60 0 0 0-16.94 14.58 60 60 0 0 0-21.1 7.38 60 60 0 0 0 0-60 60 60 0 0 1 30 8.04 60 60 0 0 0-30 51.96A60 60 0 0 0 7.37-98.9 60 60 0 0 0 0-120a60 60 0 0 0-7.37 21.1 60 60 0 0 0-14.59 16.94 60 60 0 0 0-30-51.96 60 60 0 0 1 30-8.04 60 60 0 0 0 0 60 60 60 0 0 0-21.1-7.38A60 60 0 0 0-60-103.92a60 60 0 0 0 4.16 21.96A60 60 0 0 0-60-60a60 60 0 0 0-51.96-30A60 60 0 0 1-90-111.96 60 60 0 0 0-60-60a60 60 0 0 0-21.96 4.16A60 60 0 0 0-103.92-60a60 60 0 0 0 14.58 16.94 60 60 0 0 0 7.38 21.1 60 60 0 0 0-60 0 60 60 0 0 1 8.04-30 60 60 0 0 0 51.96 30A60 60 0 0 0-98.9-7.37 60 60 0 0 0-120 0a60 60 0 0 0 21.1 7.37 60 60 0 0 0 16.94 14.59 60 60 0 0 0-51.96 30 60 60 0 0 1-8.04-30 60 60 0 0 0 60 0 60 60 0 0 0-7.38 21.1A60 60 0 0 0-103.92 60a60 60 0 0 0 21.96-4.16A60 60 0 0 0-60 60a60 60 0 0 0-30 51.96A60 60 0 0 1-111.96 90 60 60 0 0 0-60 60a60 60 0 0 0 4.16 21.96A60 60 0 0 0-60 103.92a60 60 0 0 0 16.94-14.58 60 60 0 0 0 21.1-7.38 60 60 0 0 0 0 60 60 60 0 0 1-30-8.04 60 60 0 0 0 30-51.96A60 60 0 0 0-7.37 98.9 60 60 0 0 0 0 120a60 60 0 0 0 7.37-21.1 60 60 0 0 0 14.59-16.94 60 60 0 0 0 30 51.96 60 60 0 0 1-30 8.04 60 60 0 0 0 0-60 60 60 0 0 0 21.1 7.38A60 60 0 0 0 60 103.92a60 60 0 0 0-4.16-21.96A60 60 0 0 0 60 60a60 60 0 0 0 51.96 30A60 60 0 0 1 90 111.96 60 60 0 0 0 60 60a60 60 0 0 0 21.96-4.16A60 60 0 0 0 103.92 60a60 60 0 0 0-14.58-16.94 60 60 0 0 0-7.38-21.1 60 60 0 0 0 60 0 60 60 0 0 1-8.04 30 60 60 0 0 0-51.96-30A60 60 0 0 0 98.9 7.37 60 60 0 0 0 120 0z" fill="#0ed146"/><path d="M120 0a60 60 0 0 1-13.21 5.64A60 60 0 0 0 98.9-7.37a60 60 0 0 0-8.9-.67A60 60 0 0 0 111.96-30a60 60 0 0 0-30-8.04 60 60 0 0 0 7.38-5.02 60 60 0 0 0 .33-15.22A60 60 0 0 1 103.92-60a60 60 0 0 1-8.61 11.49 60 60 0 0 0-13.35-7.33 60 60 0 0 0-8.04 3.88 60 60 0 0 0 8.04-30 60 60 0 0 0-30 8.04 60 60 0 0 0 3.88-8.04 60 60 0 0 0-7.33-13.35A60 60 0 0 1 60-103.92a60 60 0 0 1-1.72 14.25 60 60 0 0 0-15.22.33 60 60 0 0 0-5.02 7.38 60 60 0 0 0-8.04-30A60 60 0 0 0 8.04-90a60 60 0 0 0-.67-8.9 60 60 0 0 0-13.21-7.89A60 60 0 0 1 0-120a60 60 0 0 1 5.84 13.21A60 60 0 0 0-7.37-98.9a60 60 0 0 0-.67 8.9A60 60 0 0 0-30-111.96a60 60 0 0 0-8.04 30 60 60 0 0 0-5.02-7.38 60 60 0 0 0-15.22-.33A60 60 0 0 1-60-103.92a60 60 0 0 1 11.49 8.61 60 60 0 0 0-7.33 13.35 60 60 0 0 0 3.88 8.04 60 60 0 0 0-30-8.04 60 60 0 0 0 8.04 30 60 60 0 0 0-8.04-3.88 60 60 0 0 0-13.35 7.33A60 60 0 0 1-103.92-60a60 60 0 0 1 14.25 1.72 60 60 0 0 0 .33 15.22 60 60 0 0 0 7.38 5.02 60 60 0 0 0-30 8.04A60 60 0 0 0-90-8.04a60 60 0 0 0-8.9.67 60 60 0 0 0-7.89 13.01A60 60 0 0 1-120 0a60 60 0 0 1 13.21-5.64A60 60 0 0 0-98.9 7.37a60 60 0 0 0 8.9.67A60 60 0 0 0-111.96 30a60 60 0 0 0 30 8.04 60 60 0 0 0-7.38 5.02 60 60 0 0 0-.33 15.22A60 60 0 0 1-103.92 60a60 60 0 0 1 8.61-11.49 60 60 0 0 0 13.35 7.33 60 60 0 0 0 8.04-3.88 60 60 0 0 0-8.04 30 60 60 0 0 0 30-8.04 60 60 0 0 0-3.88 8.04 60 60 0 0 0 7.33 13.35A60 60 0 0 1-60 103.92a60 60 0 0 1 1.72-14.25 60 60 0 0 0 15.22-.33 60 60 0 0 0 5.02-7.38 60 60 0 0 0 8.04 30A60 60 0 0 0-8.04 90a60 60 0 0 0 .67 8.9 60 60 0 0 0 13.21 7.89A60 60 0 0 1 0 120a60 60 0 0 1-5.84-13.21A60 60 0 0 0 7.37 98.9a60 60 0 0 0 .67-8.9A60 60 0 0 0 30 111.96a60 60 0 0 0 8.04-30 60 60 0 0 0 5.02 7.38 60 60 0 0 0 15.22.33A60 60 0 0 1 60 103.92a60 60 0 0 1-11.49-8.61 60 60 0 0 0 7.33-13.35 60 60 0 0 0-3.88-8.04 60 60 0 0 0 30 8.04 60 60 0 0 0-8.04-30 60 60 0 0 0 8.04 3.88 60 60 0 0 0 13.35-7.33A60 60 0 0 1 103.92 60a60 60 0 0 1-14.25-1.72 60 60 0 0 0-.33-15.22 60 60 0 0 0-7.38-5.02 60 60 0 0 0 30-8.04A60 60 0 0 0 90 8.04a60 60 0 0 0 8.9-.67 60 60 0 0 0 7.89-13.01A60 60 0 0 1 120 0z" fill="#01a8f3"/><path d="M111.96-30A60 60 0 0 1 30-111.96a60 60 0 0 1-111.96 30 60 60 0 0 1-30 111.96A60 60 0 0 1-30 111.96a60 60 0 0 1 111.96-30 60 60 0 0 1 30-111.96zm-30-51.96a60 60 0 0 1-111.96-30A60 60 0 0 1-111.96-30a60 60 0 0 1 30 111.96 60 60 0 0 1 111.96 30A60 60 0 0 1 111.96 30a60 60 0 0 1-30-111.96z" fill="#fe7f26"/><path d="M60 0a60 60 0 0 0 30-8.04A60 60 0 0 0 60 0a60 60 0 0 0 21.96-21.96 60 60 0 0 0-30-8.04 60 60 0 0 0 30-8.04 60 60 0 0 0-30 8.04 60 60 0 0 0 21.96-21.96A60 60 0 0 0 51.96-30 60 60 0 0 0 60-60a60 60 0 0 0-30 8.04 60 60 0 0 0 21.96-21.96A60 60 0 0 0 30-51.96a60 60 0 0 0 8.04-30 60 60 0 0 0-8.04 30 60 60 0 0 0-8.04-30A60 60 0 0 0 0-60a60 60 0 0 0 8.04-30A60 60 0 0 0 0-60a60 60 0 0 0-8.04-30A60 60 0 0 0 0-60a60 60 0 0 0-21.96-21.96 60 60 0 0 0-8.04 30 60 60 0 0 0-8.04-30 60 60 0 0 0 8.04 30 60 60 0 0 0-21.96-21.96A60 60 0 0 0-30-51.96 60 60 0 0 0-60-60a60 60 0 0 0 8.04 30 60 60 0 0 0-21.96-21.96A60 60 0 0 0-51.96-30a60 60 0 0 0-30-8.04 60 60 0 0 0 30 8.04 60 60 0 0 0-30 8.04A60 60 0 0 0-60 0a60 60 0 0 0-30-8.04A60 60 0 0 0-60 0a60 60 0 0 0-30 8.04A60 60 0 0 0-60 0a60 60 0 0 0-21.96 21.96 60 60 0 0 0 30 8.04 60 60 0 0 0-30 8.04 60 60 0 0 0 30-8.04 60 60 0 0 0-21.96 21.96A60 60 0 0 0-51.96 30 60 60 0 0 0-60 60a60 60 0 0 0 30-8.04 60 60 0 0 0-21.96 21.96A60 60 0 0 0-30 51.96a60 60 0 0 0-8.04 30 60 60 0 0 0 8.04-30 60 60 0 0 0 8.04 30A60 60 0 0 0 0 60a60 60 0 0 0-8.04 30A60 60 0 0 0 0 60a60 60 0 0 0 8.04 30A60 60 0 0 0 0 60a60 60 0 0 0 21.96 21.96 60 60 0 0 0 8.04-30 60 60 0 0 0 8.04 30 60 60 0 0 0-8.04-30 60 60 0 0 0 21.96 21.96A60 60 0 0 0 30 51.96 60 60 0 0 0 60 60a60 60 0 0 0-8.04-30 60 60 0 0 0 21.96 21.96A60 60 0 0 0 51.96 30a60 60 0 0 0 30 8.04 60 60 0 0 0-30-8.04 60 60 0 0 0 30-8.04A60 60 0 0 0 60 0a60 60 0 0 0 30 8.04A60 60 0 0 0 60 0z" fill="#eb1c24"/><path d="M60 0a60 60 0 0 1 21.96-21.96 60 60 0 0 1-30-8.04A60 60 0 0 1 60-60a60 60 0 0 1-30 8.04 60 60 0 0 1-8.04-30A60 60 0 0 1 0-60a60 60 0 0 1-21.96-21.96 60 60 0 0 1-8.04 30A60 60 0 0 1-60-60a60 60 0 0 1 8.04 30 60 60 0 0 1-30 8.04A60 60 0 0 1-60 0a60 60 0 0 1-21.96 21.96 60 60 0 0 1 30 8.04A60 60 0 0 1-60 60a60 60 0 0 1 30-8.04 60 60 0 0 1 8.04 30A60 60 0 0 1 0 60a60 60 0 0 1 21.96 21.96 60 60 0 0 1 8.04-30A60 60 0 0 1 60 60a60 60 0 0 1-8.04-30 60 60 0 0 1 30-8.04A60 60 0 0 1 60 0z" fill="#fdf201"/><circle fill="#eb1c24" r="60"/><path d="M60 0a60 60 0 0 1-8.04-30A60 60 0 0 1 30-51.96 60 60 0 0 1 0-60a60 60 0 0 1-30 8.04A60 60 0 0 1-51.96-30 60 60 0 0 1-60 0a60 60 0 0 1 8.04 30A60 60 0 0 1-30 51.96 60 60 0 0 1 0 60a60 60 0 0 1 30-8.04A60 60 0 0 1 51.96 30 60 60 0 0 1 60 0z" fill="#b83dba"/><path d="M60 0a60 60 0 0 1-14.84-12.1 60 60 0 0 1 6.8-17.9 60 60 0 0 1-18.9-3.06A60 60 0 0 1 30-51.96a60 60 0 0 1-17.9 6.8A60 60 0 0 1 0-60a60 60 0 0 1-12.1 14.84 60 60 0 0 1-17.9-6.8 60 60 0 0 1-3.06 18.9A60 60 0 0 1-51.96-30a60 60 0 0 1 6.8 17.9A60 60 0 0 1-60 0a60 60 0 0 1 14.84 12.1 60 60 0 0 1-6.8 17.9 60 60 0 0 1 18.9 3.06A60 60 0 0 1-30 51.96a60 60 0 0 1 17.9-6.8A60 60 0 0 1 0 60a60 60 0 0 1 12.1-14.84 60 60 0 0 1 17.9 6.8 60 60 0 0 1 3.06-18.9A60 60 0 0 1 51.96 30a60 60 0 0 1-6.8-17.9A60 60 0 0 1 60 0z" fill="#01a8f3"/><path d="M45.16-12.1a60 60 0 0 1-12.1-20.96 60 60 0 0 1-20.96-12.1 60 60 0 0 1-24.2 0 60 60 0 0 1-20.96 12.1 60 60 0 0 1-12.1 20.96 60 60 0 0 1 0 24.2 60 60 0 0 1 12.1 20.96 60 60 0 0 1 20.96 12.1 60 60 0 0 1 24.2 0 60 60 0 0 1 20.96-12.1 60 60 0 0 1 12.1-20.96 60 60 0 0 1 0-24.2z" fill="#0ed146"/><path d="M60 0a60 60 0 0 0-30-8.04A60 60 0 0 0 51.96-30a60 60 0 0 0-30 8.04 60 60 0 0 0 8.04-30A60 60 0 0 0 8.04-30 60 60 0 0 0 0-60a60 60 0 0 0-8.04 30A60 60 0 0 0-30-51.96a60 60 0 0 0 8.04 30 60 60 0 0 0-30-8.04A60 60 0 0 0-30-8.04 60 60 0 0 0-60 0a60 60 0 0 0 30 8.04A60 60 0 0 0-51.96 30a60 60 0 0 0 30-8.04 60 60 0 0 0-8.04 30A60 60 0 0 0-8.04 30 60 60 0 0 0 0 60a60 60 0 0 0 8.04-30A60 60 0 0 0 30 51.96a60 60 0 0 0-8.04-30 60 60 0 0 0 30 8.04A60 60 0 0 0 30 8.04 60 60 0 0 0 60 0a60 60 0 0 0-30 8.04A60 60 0 0 0 51.96 30a60 60 0 0 0-30-8.04 60 60 0 0 0 8.04 30A60 60 0 0 0 8.04 30 60 60 0 0 0 0 60a60 60 0 0 0-8.04-30A60 60 0 0 0-30 51.96a60 60 0 0 0 8.04-30 60 60 0 0 0-30 8.04A60 60 0 0 0-30 8.04 60 60 0 0 0-60 0a60 60 0 0 0 30-8.04A60 60 0 0 0-51.96-30a60 60 0 0 0 30 8.04 60 60 0 0 0-8.04-30A60 60 0 0 0-8.04-30 60 60 0 0 0 0-60a60 60 0 0 0 8.04 30A60 60 0 0 0 30-51.96a60 60 0 0 0-8.04 30 60 60 0 0 0 30-8.04A60 60 0 0 0 30-8.04 60 60 0 0 0 60 0z" fill="#eb1c24"/><path d="M26.13 0A60 60 0 0 1 30-8.04a60 60 0 0 1-7.37-5.02 60 60 0 0 1-.67-8.9 60 60 0 0 1-8.9-.67A60 60 0 0 1 8.04-30 60 60 0 0 1 0-26.13 60 60 0 0 1-8.04-30a60 60 0 0 1-5.02 7.37 60 60 0 0 1-8.9.67 60 60 0 0 1-.67 8.9A60 60 0 0 1-30-8.04 60 60 0 0 1-26.13 0 60 60 0 0 1-30 8.04a60 60 0 0 1 7.37 5.02 60 60 0 0 1 .67 8.9 60 60 0 0 1 8.9.67A60 60 0 0 1-8.04 30 60 60 0 0 1 0 26.13 60 60 0 0 1 8.04 30a60 60 0 0 1 5.02-7.37 60 60 0 0 1 8.9-.67 60 60 0 0 1 .67-8.9A60 60 0 0 1 30 8.04 60 60 0 0 1 26.13 0z" fill="#01a8f3"/><path d="M0 0a60 60 0 0 0 30-8.04A60 60 0 0 0 0 0a60 60 0 0 0 21.96-21.96A60 60 0 0 0 0 0a60 60 0 0 0 8.04-30A60 60 0 0 0 0 0a60 60 0 0 0-8.04-30A60 60 0 0 0 0 0a60 60 0 0 0-21.96-21.96A60 60 0 0 0 0 0a60 60 0 0 0-30-8.04A60 60 0 0 0 0 0a60 60 0 0 0-30 8.04A60 60 0 0 0 0 0a60 60 0 0 0-21.96 21.96A60 60 0 0 0 0 0a60 60 0 0 0-8.04 30A60 60 0 0 0 0 0a60 60 0 0 0 8.04 30A60 60 0 0 0 0 0a60 60 0 0 0 21.96 21.96A60 60 0 0 0 0 0a60 60 0 0 0 30 8.04A60 60 0 0 0 0 0" fill="#fe7f26"/><path d="M26.13 0a60 60 0 0 1-3.5-13.06 60 60 0 0 1-9.57-9.57A60 60 0 0 1 0-26.13a60 60 0 0 1-13.06 3.5 60 60 0 0 1-9.57 9.57A60 60 0 0 1-26.13 0a60 60 0 0 1 3.5 13.06 60 60 0 0 1 9.57 9.57A60 60 0 0 1 0 26.13a60 60 0 0 1 13.06-3.5 60 60 0 0 1 9.57-9.57A60 60 0 0 1 26.13 0z" fill="#fdf201"/><path d="M0 0a60 60 0 0 0 24.34-5.17 60 60 0 0 1-.66-2.53A60 60 0 0 0 0 0a60 60 0 0 0 18.51-16.66 60 60 0 0 1-1.85-1.85A60 60 0 0 0 0 0a60 60 0 0 0 7.7-23.68 60 60 0 0 1-2.53-.66A60 60 0 0 0 0 0a60 60 0 0 0-5.17-24.34 60 60 0 0 1-2.53.66A60 60 0 0 0 0 0a60 60 0 0 0-16.66-18.51 60 60 0 0 1-1.85 1.85A60 60 0 0 0 0 0a60 60 0 0 0-23.68-7.7 60 60 0 0 1-.66 2.53A60 60 0 0 0 0 0a60 60 0 0 0-24.34 5.17 60 60 0 0 1 .66 2.53A60 60 0 0 0 0 0a60 60 0 0 0-18.51 16.66 60 60 0 0 1 1.85 1.85A60 60 0 0 0 0 0a60 60 0 0 0-7.7 23.68 60 60 0 0 1 2.53.66A60 60 0 0 0 0 0a60 60 0 0 0 5.17 24.34 60 60 0 0 1 2.53-.66A60 60 0 0 0 0 0a60 60 0 0 0 16.66 18.51 60 60 0 0 1 1.85-1.85A60 60 0 0 0 0 0a60 60 0 0 0 23.68 7.7 60 60 0 0 1 .66-2.53A60 60 0 0 0 0 0z" fill="#eb1c24"/><path d="M103.92 0a60 60 0 0 0-21.96-21.96 60 60 0 0 0 8.04-30A60 60 0 0 0 60-60a60 60 0 0 0-8.04-30 60 60 0 0 0-30 8.04A60 60 0 0 0 0-103.92a60 60 0 0 0-21.96 21.96 60 60 0 0 0-30-8.04A60 60 0 0 0-60-60a60 60 0 0 0-30 8.04 60 60 0 0 0 8.04 30A60 60 0 0 0-103.92 0a60 60 0 0 0 21.96 21.96 60 60 0 0 0-8.04 30A60 60 0 0 0-60 60a60 60 0 0 0 8.04 30 60 60 0 0 0 30-8.04A60 60 0 0 0 0 103.92a60 60 0 0 0 21.96-21.96 60 60 0 0 0 30 8.04A60 60 0 0 0 60 60a60 60 0 0 0 30-8.04 60 60 0 0 0-8.04-30A60 60 0 0 0 103.92 0zM45.16-12.1a60 60 0 0 1-12.1-20.96 60 60 0 0 1-20.96-12.1 60 60 0 0 1-24.2 0 60 60 0 0 1-20.96 12.1 60 60 0 0 1-12.1 20.96 60 60 0 0 1 0 24.2 60 60 0 0 1 12.1 20.96 60 60 0 0 1 20.96 12.1 60 60 0 0 1 24.2 0 60 60 0 0 1 20.96-12.1 60 60 0 0 1 12.1-20.96 60 60 0 0 1 0-24.2z" fill="none"/></g></svg>