<svg xmlns="http://www.w3.org/2000/svg" viewBox="-4-4 8 8"><circle cx="-2" r="2" fill="red"/><circle cx="-1" cy="1.732" r="2" fill="#f80"/><circle cx="1" cy="1.732" r="2" fill="#fe0"/><circle cx="2" r="2" fill="#0a2"/><circle cx="1" cy="-1.732" r="2" fill="#26a"/><circle cx="-1" cy="-1.732" r="2" fill="#808"/><path d="M0 0a2 2 0 0 0-3 1.732A2 2 0 0 0 0 0z" fill="#f50"/><path d="M0 0a2 2 0 0 0 0 3.464A2 2 0 0 0 0 0z" fill="#fb0"/><path d="M0 0a2 2 0 0 0 3 1.732A2 2 0 0 0 0 0z" fill="#8c1"/><path d="M0 0a2 2 0 0 0 3-1.732A2 2 0 0 0 0 0z" fill="#186"/><path d="M0 0a2 2 0 0 0 0-3.464A2 2 0 0 0 0 0z" fill="#539"/><path d="M0 0a2 2 0 0 0-3-1.732A2 2 0 0 0 0 0z" fill="#c04"/><path d="M-2 0a2 2 0 0 1 1 1.732 2 2 0 0 1 2 0A2 2 0 0 1 2 0a2 2 0 0 1-1-1.732 2 2 0 0 1-2 0A2 2 0 0 1-2 0z" fill="#fff"/><g font-size="1" text-anchor="middle" fill="#fff"><text y="-2.9" transform="rotate(270)">♈︎</text><text y="-2" transform="rotate(240)">♉︎</text><text y="-2.9" transform="rotate(210)">♊︎</text><text y="-2" transform="rotate(180)">♋︎</text><text y="-2.9" transform="rotate(150)">♌︎</text><text y="-2" transform="rotate(120)">♍︎</text><text y="-2.9" transform="rotate(90)">♎︎</text><text y="-2" transform="rotate(60)">♏︎</text><text y="-2.9" transform="rotate(30)">♐︎</text><text y="-2">♑︎</text><text y="-2.9" transform="rotate(330)">♒︎</text><text y="-2" transform="rotate(300)">♓︎</text></g></svg>
